<?xml version="1.0" encoding="utf-8"?>
<!-- Generator: Adobe Illustrator 22.0.0, SVG Export Plug-In . SVG Version: 6.00 Build 0)  -->
<svg version="1.1" id="Layer_1" xmlns="http://www.w3.org/2000/svg" xmlns:xlink="http://www.w3.org/1999/xlink" x="0px" y="0px"
	 viewBox="0 0 64 64" style="enable-background:new 0 0 64 64;" xml:space="preserve">
<style type="text/css">
	.st0{fill:#5750A1;}
	.st1{fill:#FFFFFF;}
</style>
<path class="st0" d="M46.7,63H17.3C8.3,63,1,55.7,1,46.7V17.3C1,8.3,8.3,1,17.3,1h29.3C55.7,1,63,8.3,63,17.3v29.3
	C63,55.7,55.7,63,46.7,63z"/>
<title>logo svg front</title>
<path id="Path_6108" class="st1" d="M54.6,23.5c-2.1-2.1-4.9-3.3-7.9-3.5c-0.2,0-0.4,0-0.6,0l0,0c-2.3,0-4.5,0.7-6.5,1.9
	c-0.3,0.2-0.5,0.3-0.7,0.5c-0.1,0.1-0.2,0.2-0.3,0.2L37,21l-2.2,8.1L43,27l-1.6-1.6c0.1-0.1,0.3-0.2,0.4-0.3h0
	c1.3-0.8,2.8-1.3,4.4-1.3c0.1,0,0.3,0,0.4,0c4.5,0.2,7.9,4,7.7,8.4c-0.2,4.3-3.8,7.8-8.1,7.7c-0.1,0-0.2,0-0.3,0h-0.1
	c-3.2-0.2-5.3-2.3-7.8-4.8c-0.3-0.3-0.7-0.7-1-1L29.8,27c-0.3-0.3-0.7-0.7-1-1c-1.3-1.4-2.7-2.7-4.3-3.8c-1.8-1.3-3.9-2-6-2.1h-0.2
	c-0.1,0-0.3,0-0.4,0c-6.6,0-12,5.3-12,11.9c0,6.4,5,11.7,11.4,12c0.2,0,0.4,0,0.6,0c2.3,0,4.5-0.7,6.5-1.9c0.3-0.2,0.5-0.3,0.7-0.5
	c0.1-0.1,0.2-0.2,0.3-0.2L27,43l2.2-8.1L21.1,37l1.6,1.6c-0.1,0.1-0.3,0.2-0.4,0.3l0,0c-1.3,0.8-2.8,1.3-4.4,1.3l0,0
	c-0.1,0-0.3,0-0.4,0c-4.5-0.2-7.9-4-7.7-8.4c0.2-4.3,3.8-7.8,8.1-7.7c0.1,0,0.2,0,0.3,0h0.1c3.2,0.2,5.3,2.3,7.8,4.8
	c0.3,0.3,0.7,0.7,1,1l7.2,7.2c0.3,0.3,0.7,0.7,1,1c1.3,1.4,2.7,2.7,4.3,3.8c1.8,1.3,3.9,2,6,2.1h0.2c0.1,0,0.3,0,0.4,0
	c6.6,0,11.9-5.3,11.9-11.9C58.1,28.8,56.9,25.8,54.6,23.5L54.6,23.5z"/>
</svg>
