<?xml version="1.0" encoding="utf-8"?>
<!-- Generator: Adobe Illustrator 22.0.0, SVG Export Plug-In . SVG Version: 6.00 Build 0)  -->
<svg version="1.1" id="Layer_1" xmlns="http://www.w3.org/2000/svg" xmlns:xlink="http://www.w3.org/1999/xlink" x="0px" y="0px"
	 viewBox="0 0 500 500" style="enable-background:new 0 0 500 500;" xml:space="preserve">
<style type="text/css">
	.st0{fill:#FFFFFF;}
</style>
<g id="message-circle-2_1_">
	
		<image style="overflow:visible;opacity:0.8;" width="514" height="514" xlink:href="D6F5FFC2DBC036E2.png"  transform="matrix(1 0 0 1 -7 -7)">
	</image>
	<g>
		<path class="st0" d="M474,237.6c0.1,32.9-7.6,65.3-22.4,94.6c-35.8,71.7-109.1,117-189.2,117c-32.9,0.1-65.3-7.6-94.6-22.4L26,474
			l47.3-141.9c-14.8-29.3-22.5-61.7-22.4-94.6c0-80.1,45.3-153.3,117-189.2c29.3-14.8,61.7-22.5,94.5-22.4h12.4
			c107.4,5.9,193.2,91.7,199.2,199.1V237.6z"/>
	</g>
</g>
<g id="Path_6108_1_">
	
		<image style="overflow:visible;opacity:0.8;" width="681" height="348" xlink:href="D6F5FFC2DBC036E6.png"  transform="matrix(1 0 0 1 -808 -148)">
	</image>
	<g>
		<path class="st0" d="M-201.2-73.4c-24.7-24.7-57.7-39.3-92.5-40.9c-2.2-0.1-4.5-0.2-6.7-0.2l0,0c-27,0-53.4,7.7-76,22.3
			c-3,1.9-5.9,4-8.8,6.1c-1.2,0.9-2.5,1.9-3.7,2.9l-19.6-19.7l-25.9,95.8l95.9-25.4l-18.3-18.4c1.5-1.1,3.1-2.2,4.7-3.2h0.1
			c15.4-9.9,33.3-15.1,51.5-15.1c1.5,0,3,0,4.5,0.1c52.5,2.4,93.2,46.9,90.8,99.4c-2.3,51-44.4,91.1-95.4,90.9c-1.1,0-2.3,0-3.4-0.1
			h-0.4h-0.7h-0.5c-38-2-62.7-27.3-91.3-56.5c-3.9-4-7.9-8.1-12-12.2l-84.6-84.6c-3.9-3.9-7.8-7.9-11.6-11.9
			c-15.2-16.7-32.1-31.8-50.3-45.2c-20.8-14.9-45.5-23.6-71.1-24.9h-1h-0.5h-0.8c-1.6-0.1-3.3-0.1-5-0.1
			c-77.5-0.2-140.5,62.6-140.7,140.1c-0.2,75.1,58.9,137.1,133.9,140.5c2.2,0.1,4.5,0.2,6.7,0.2c27,0,53.3-7.7,76-22.3
			c3-1.9,6-4,8.8-6.1c1.2-0.9,2.5-1.9,3.7-2.9l19.6,19.7l25.9-95.8l-95.9,25.4l18.3,18.4c-1.5,1.1-3.1,2.2-4.7,3.2h-0.1
			c-15.4,9.9-33.3,15.1-51.5,15.1l0,0c-1.5,0-3,0-4.5-0.1c-52.5-2.4-93.2-46.8-90.8-99.4c2.3-51,44.4-91.1,95.4-90.9
			c1.1,0,2.3,0,3.4,0.1h0.4h0.7h0.5c38,2,62.7,27.3,91.3,56.5c3.9,4,7.9,8.1,12,12.2l84.6,84.6c3.9,3.9,7.8,7.9,11.6,11.9
			c15.2,16.7,32.1,31.8,50.3,45.2c20.8,14.9,45.5,23.6,71.1,24.9h1h0.5h0.8c1.6,0.1,3.3,0.1,5,0.1c77.6,0,140.5-62.8,140.5-140.3
			C-160-11.3-174.8-47.1-201.2-73.4L-201.2-73.4z"/>
	</g>
</g>
<g>
	
		<image style="overflow:visible;opacity:0.8;" width="515" height="514" xlink:href="D6F5FFC2DBC036E1.png"  transform="matrix(1 0 0 1 -1342 -7)">
	</image>
	<g>
		<path class="st0" d="M-939.3,77.3v-28c6.2-0.1,11.1-5,11.2-11.2c0.3-6.4-4.6-11.8-11-12.1c-0.1,0-0.1,0-0.2,0h-291.2
			c-6.2,0.1-11.1,5-11.2,11.2c-0.3,6.4,4.6,11.8,11,12.1c0.1,0,0.1,0,0.2,0v14v14h-78.4v38.3c0.3,90.8,55.1,172.5,139.1,207.2
			c10.7,4.5,21.8,7.9,33.1,10.6c9.4,6.9,19.4,13.1,30,18.6l-5.2,11.9c0.1,0.1,0.2,0.1,0.3,0.2l-0.3,0.8l-14,29.9h-52.3
			c-10.3,0-18.6,8.4-18.7,18.7V474h223.1v-60.7c0.7-9.6-6.5-17.9-16.1-18.6c-0.5,0-1.1-0.1-1.6,0h-52.3l-14-29.9l0,0c0,0,0,0,0,0
			l-0.1-0.2l-5.4-12.5c10.8-5.5,21.1-11.9,30.7-18.9c11.1-2.7,22-6,32.6-10.4c83.9-34.7,138.8-116.4,139.1-207.2V77.3H-939.3z
			 M-1228.6,234.1c-27.5-33.4-42.7-75.3-42.9-118.5v-0.9h41v34.5c0,40.3,10.8,78.9,29.8,112.5
			C-1210.9,253.5-1220.3,244.4-1228.6,234.1z M-999.9,233.6c-6.5,2.7-13.5,4-20.6,4c-0.6,0-1.3,0-1.9,0h-0.3h-0.2h-0.4
			c-10-0.5-19.6-3.9-27.7-9.7c-7.1-5.2-13.7-11.1-19.6-17.6c-1.5-1.5-3-3.1-4.5-4.6l-33-33c-1.6-1.6-3.2-3.2-4.7-4.8
			c-11.1-11.4-20.8-21.3-35.6-22h-0.2h-0.3h-0.1c-0.4,0-0.9,0-1.3,0c-9.9,0-19.3,3.9-26.3,10.9c-14.5,14.5-14.5,38,0,52.5
			c6.5,6.5,15.2,10.4,24.5,10.8c0.6,0,1.2,0,1.8,0c7.1,0,14.1-2,20.1-5.9c0.6-0.4,1.2-0.8,1.8-1.3l-7.1-7.2l37.4-9.9l-10.1,37.3
			l-7.6-7.7c-0.5,0.4-0.9,0.8-1.4,1.1c-1.1,0.8-2.3,1.7-3.4,2.4c-8.8,5.7-19.1,8.7-29.6,8.7c-0.9,0-1.7,0-2.6-0.1
			c-13.6-0.6-26.5-6.3-36.1-16c-21.4-21.4-21.4-56.1,0-77.5c5.2-5.2,11.3-9.3,18.1-12c6.5-2.7,13.5-4,20.6-4c0.6,0,1.3,0,1.9,0h0.3
			h0.2h0.4c10,0.5,19.6,3.9,27.7,9.7c7.1,5.2,13.7,11.1,19.6,17.6c1.5,1.5,3,3.1,4.5,4.6l33,33c1.6,1.6,3.2,3.2,4.7,4.8
			c11.1,11.4,20.8,21.3,35.6,22h0.2h0.3h0.1c0.4,0,0.9,0,1.3,0c9.9,0,19.3-3.9,26.3-10.9c14.5-14.5,14.5-38,0-52.5
			c-6.5-6.5-15.2-10.4-24.5-10.8c-0.6,0-1.2,0-1.8,0c-7.1,0-14.1,2-20.1,5.9c-0.6,0.4-1.2,0.8-1.8,1.3l7.1,7.2l-37.4,9.9l10.1-37.3
			l7.6,7.7c0.5-0.4,0.9-0.8,1.4-1.1c1.1-0.8,2.3-1.6,3.4-2.4c8.8-5.7,19.1-8.7,29.6-8.7c0.9,0,1.7,0,2.6,0.1
			c13.6,0.6,26.5,6.3,36.1,16c21.4,21.4,21.4,56.1,0,77.5C-986.9,226.7-993.1,230.8-999.9,233.6z M-941.2,234.1
			c-8.2,9.9-17.3,18.7-27.2,26.6c18.5-33.1,29-71,29-110.6v-35.5h40.2v0.9h0.9C-898.2,158.9-913.4,200.9-941.2,234.1z"/>
	</g>
</g>
</svg>
