<?xml version="1.0" encoding="utf-8"?>
<!-- Generator: Adobe Illustrator 22.0.0, SVG Export Plug-In . SVG Version: 6.00 Build 0)  -->
<svg version="1.1" id="Layer_1" xmlns="http://www.w3.org/2000/svg" xmlns:xlink="http://www.w3.org/1999/xlink" x="0px" y="0px"
	 viewBox="0 0 500 500" style="enable-background:new 0 0 500 500;" xml:space="preserve">
<style type="text/css">
	.st0{fill:#FFFFFF;}
</style>
<g>
	
		<!-- <image style="overflow:visible;opacity:0.8;" width="514" height="514" xlink:href="802189675DEB975E.png"  transform="matrix(1 0 0 1 -7 -7)">
	</image> -->
	<g>
		<path class="st0" d="M395.6,77.3v-28c6.2-0.1,11.1-5,11.2-11.2c0.3-6.4-4.6-11.8-11-12.1c-0.1,0-0.1,0-0.2,0H104.4
			c-6.2,0.1-11.1,5-11.2,11.2c-0.3,6.4,4.6,11.8,11,12.1c0.1,0,0.1,0,0.2,0v14v14H26v38.3c0.3,90.8,55.1,172.5,139.1,207.2
			c10.7,4.5,21.8,7.9,33.1,10.6c9.4,6.9,19.4,13.1,30,18.6l-5.2,11.9c0.1,0.1,0.2,0.1,0.3,0.2l-0.3,0.8l-14,29.9h-52.3
			c-10.3,0-18.6,8.4-18.7,18.7V474H361v-60.7c0.7-9.6-6.5-17.9-16.1-18.6c-0.5,0-1.1-0.1-1.6,0h-52.3l-14-29.9l0,0c0,0,0,0,0,0
			l-0.1-0.2l-5.4-12.5c10.8-5.5,21.1-11.9,30.7-18.9c11.1-2.7,22-6,32.6-10.4c83.9-34.7,138.8-116.4,139.1-207.2V77.3H395.6z
			 M106.3,234.1c-27.5-33.4-42.7-75.3-42.9-118.5v-0.9h41v34.5c0,40.3,10.8,78.9,29.8,112.5C124.1,253.5,114.7,244.4,106.3,234.1z
			 M335.1,233.6c-6.5,2.7-13.5,4-20.6,4c-0.6,0-1.3,0-1.9,0h-0.3H312h-0.4c-10-0.5-19.6-3.9-27.7-9.7c-7.1-5.2-13.7-11.1-19.6-17.6
			c-1.5-1.5-3-3.1-4.5-4.6l-33-33c-1.6-1.6-3.2-3.2-4.7-4.8c-11.1-11.4-20.8-21.3-35.6-22h-0.2H186h-0.1c-0.4,0-0.9,0-1.3,0
			c-9.9,0-19.3,3.9-26.3,10.9c-14.5,14.5-14.5,38,0,52.5c6.5,6.5,15.2,10.4,24.5,10.8c0.6,0,1.2,0,1.8,0c7.1,0,14.1-2,20.1-5.9
			c0.6-0.4,1.2-0.8,1.8-1.3l-7.1-7.2l37.4-9.9l-10.1,37.3l-7.6-7.7c-0.5,0.4-0.9,0.8-1.4,1.1c-1.1,0.8-2.3,1.7-3.4,2.4
			c-8.8,5.7-19.1,8.7-29.6,8.7c-0.9,0-1.7,0-2.6-0.1c-13.6-0.6-26.5-6.3-36.1-16c-21.4-21.4-21.4-56.1,0-77.5
			c5.2-5.2,11.3-9.3,18.1-12c6.5-2.7,13.5-4,20.6-4c0.6,0,1.3,0,1.9,0h0.3h0.2h0.4c10,0.5,19.6,3.9,27.7,9.7
			c7.1,5.2,13.7,11.1,19.6,17.6c1.5,1.5,3,3.1,4.5,4.6l33,33c1.6,1.6,3.2,3.2,4.7,4.8c11.1,11.4,20.8,21.3,35.6,22h0.2h0.3h0.1
			c0.4,0,0.9,0,1.3,0c9.9,0,19.3-3.9,26.3-10.9c14.5-14.5,14.5-38,0-52.5c-6.5-6.5-15.2-10.4-24.5-10.8c-0.6,0-1.2,0-1.8,0
			c-7.1,0-14.1,2-20.1,5.9c-0.6,0.4-1.2,0.8-1.8,1.3l7.1,7.2l-37.4,9.9l10.1-37.3l7.6,7.7c0.5-0.4,0.9-0.8,1.4-1.1
			c1.1-0.8,2.3-1.6,3.4-2.4c8.8-5.7,19.1-8.7,29.6-8.7c0.9,0,1.7,0,2.6,0.1c13.6,0.6,26.5,6.3,36.1,16c21.4,21.4,21.4,56.1,0,77.5
			C348,226.7,341.9,230.8,335.1,233.6z M393.7,234.1c-8.2,9.9-17.3,18.7-27.2,26.6c18.5-33.1,29-71,29-110.6v-35.5h40.2v0.9h0.9
			C436.7,158.9,421.5,200.9,393.7,234.1z"/>
	</g>
</g>
</svg>
