<?xml version="1.0" standalone="no"?>
<!DOCTYPE svg PUBLIC "-//W3C//DTD SVG 20010904//EN"
 "http://www.w3.org/TR/2001/REC-SVG-20010904/DTD/svg10.dtd">
<svg version="1.0" xmlns="http://www.w3.org/2000/svg"
 width="700.000000pt" height="700.000000pt" viewBox="0 0 700.000000 700.000000"
 preserveAspectRatio="xMidYMid meet">
<metadata>
Created by potrace 1.11, written by Peter Selinger 2001-2013
</metadata>
<g transform="translate(0.000000,700.000000) scale(0.100000,-0.100000)"
fill="#000000" stroke="none">
<path d="M1690 6879 c-830 -97 -1477 -750 -1570 -1584 -14 -127 -14 -3463 1
-3593 92 -836 742 -1485 1584 -1582 123 -14 3467 -14 3590 0 738 85 1337 596
1530 1305 62 227 58 100 62 2005 3 1236 1 1777 -7 1855 -29 291 -126 562 -284
800 -280 420 -688 686 -1201 783 -82 15 -242 17 -1860 18 -973 1 -1804 -2
-1845 -7z m3558 -2084 c552 -97 957 -480 1078 -1020 25 -110 30 -388 10 -505
-92 -529 -489 -940 -1018 -1056 -100 -22 -344 -30 -448 -15 -241 36 -440 131
-682 327 -51 41 -421 403 -823 803 -682 679 -806 797 -927 880 -74 50 -205
109 -292 131 -99 25 -273 27 -384 4 -320 -65 -582 -326 -668 -664 -27 -107
-25 -305 5 -415 135 -500 648 -777 1135 -614 84 28 182 76 231 113 19 14 17
18 -64 100 -47 47 -83 87 -80 90 7 7 862 227 866 222 4 -3 -227 -866 -234
-875 -2 -3 -42 34 -89 82 -48 48 -89 87 -91 87 -3 0 -18 -11 -35 -25 -90 -76
-297 -172 -468 -217 -152 -40 -373 -50 -528 -24 -517 87 -922 463 -1059 984
-35 133 -44 382 -19 528 107 627 653 1084 1296 1084 318 0 564 -95 859 -332
47 -38 396 -376 775 -751 380 -376 727 -716 771 -757 176 -162 339 -260 504
-301 71 -18 105 -21 225 -17 127 4 151 8 238 37 229 78 414 241 519 457 64
133 82 216 82 384 0 129 -3 155 -26 233 -77 252 -235 441 -460 552 -136 67
-225 87 -382 88 -160 0 -255 -21 -400 -93 -158 -77 -154 -66 -52 -161 48 -45
87 -84 87 -89 0 -4 -21 -12 -47 -17 -27 -6 -225 -56 -442 -112 -217 -55 -396
-99 -398 -97 -2 2 50 201 115 442 l119 439 92 -89 91 -90 28 26 c101 94 403
219 598 247 97 14 302 12 392 -4z"/>
</g>
</svg>
