<?xml version="1.0" encoding="utf-8"?>
<!-- Generator: Adobe Illustrator 22.0.0, SVG Export Plug-In . SVG Version: 6.00 Build 0)  -->
<svg version="1.1" id="Layer_1" xmlns="http://www.w3.org/2000/svg" xmlns:xlink="http://www.w3.org/1999/xlink" x="0px" y="0px"
	 viewBox="0 0 500 266" style="enable-background:new 0 0 500 266;" xml:space="preserve">
<style type="text/css">
	.st0{fill:#FFFFFF;}
</style>
<g id="Path_6108_1_">
	

	<g>
		<path class="st0" d="M453.1,57.1c-18.8-18.9-44-30-70.7-31.3c-1.7-0.1-3.4-0.1-5.1-0.1l0,0c-20.6,0-40.8,5.9-58.1,17
			c-2.3,1.5-4.5,3-6.7,4.7c-0.9,0.7-1.9,1.4-2.8,2.2l-14.9-15l-19.8,73.1l73.2-19.4l-14-14c1.2-0.9,2.4-1.7,3.6-2.5h0.1
			c11.7-7.6,25.4-11.6,39.4-11.5c1.1,0,2.3,0,3.4,0.1c40.1,1.8,71.2,35.8,69.3,75.9c-1.8,38.9-33.9,69.6-72.9,69.4
			c-0.8,0-1.7,0-2.6,0h-0.3h-0.5h-0.4c-29.1-1.5-47.9-20.8-69.7-43.2c-3-3.1-6.1-6.2-9.2-9.3L230,88.5c-3-3-6-6-8.9-9.1
			c-11.6-12.7-24.5-24.3-38.4-34.5c-15.9-11.4-34.8-18-54.3-19h-0.8h-0.4h-0.6c-1.3,0-2.5-0.1-3.8-0.1
			c-59.2-0.1-107.3,47.8-107.4,107c-0.1,57.4,45,104.7,102.3,107.3c1.7,0.1,3.4,0.1,5.1,0.1c20.6,0,40.7-5.9,58-17
			c2.3-1.5,4.5-3,6.7-4.7c0.9-0.7,1.9-1.4,2.8-2.2l14.9,15l19.8-73.1l-73.2,19.4l14,14c-1.2,0.9-2.4,1.7-3.6,2.5h-0.1
			c-11.7,7.6-25.4,11.6-39.4,11.5l0,0c-1.1,0-2.3,0-3.4-0.1c-40.1-1.8-71.2-35.8-69.3-75.9c1.8-38.9,33.9-69.6,72.9-69.4
			c0.8,0,1.7,0,2.6,0h0.3h0.5h0.4c29.1,1.5,47.9,20.8,69.7,43.2c3,3.1,6.1,6.2,9.2,9.3l64.6,64.6c3,3,6,6,8.9,9.1
			c11.6,12.7,24.5,24.3,38.4,34.5c15.9,11.4,34.8,18,54.3,19h0.8h0.4h0.6c1.3,0,2.5,0.1,3.8,0.1c59.2,0,107.3-48,107.3-107.2
			C484.6,104.5,473.3,77.2,453.1,57.1L453.1,57.1z"/>
	</g>
</g>
</svg>
