<svg xmlns="http://www.w3.org/2000/svg" width="99.056" height="99.056" viewBox="0 0 99.056 99.056">
  <defs>
    <style>
      .cls-1 {
        fill: #50509f;
      }

      .cls-2 {
        fill: #fff;
      }
    </style>
  </defs>
  <g id="Group_10031" data-name="Group 10031" transform="translate(-406.563 -1818.578)">
    <g id="Ellipse_1-2" data-name="Ellipse 1-2" transform="translate(406.563 1818.578)">
      <g id="Group_9905" data-name="Group 9905">
        <circle id="Ellipse_422" data-name="Ellipse 422" class="cls-1" cx="49.528" cy="49.528" r="49.528"/>
      </g>
    </g>
    <g id="Path_6108" data-name="Path 6108" transform="translate(419.721 1852.11)">
      <g id="Group_9906" data-name="Group 9906">
        <path id="Path_6520" data-name="Path 6520" class="cls-2" d="M212.007,199.276a16.528,16.528,0,0,0-10.91-4.826c-.261-.012-.525-.018-.785-.018h0a16.5,16.5,0,0,0-8.963,2.629c-.352.225-.7.467-1.032.722-.145.109-.29.223-.432.339l-2.3-2.318-3.057,11.288,11.3-2.994-2.159-2.167c.181-.133.368-.263.556-.381h.009a11.169,11.169,0,0,1,6.075-1.778c.177,0,.356,0,.531.012a11.22,11.22,0,0,1-.546,22.429c-.127,0-.265,0-.395-.005h-.189c-4.484-.232-7.393-3.214-10.761-6.667-.459-.471-.934-.959-1.415-1.438l-9.969-9.969c-.458-.458-.921-.933-1.369-1.4a41,41,0,0,0-5.924-5.327,15.877,15.877,0,0,0-8.382-2.94h-.273c-.193-.006-.39-.011-.584-.011a16.551,16.551,0,0,0-.8,33.085c.261.013.526.019.786.019a16.506,16.506,0,0,0,8.96-2.628c.353-.225.7-.47,1.038-.724.145-.109.289-.223.432-.339l2.3,2.318,3.057-11.288-11.3,2.994,2.159,2.167c-.182.134-.369.263-.556.381h-.01a11.176,11.176,0,0,1-6.075,1.779h0c-.176,0-.356,0-.532-.013a11.22,11.22,0,0,1,.546-22.429c.127,0,.265,0,.395.007h.189c4.484.23,7.393,3.213,10.761,6.666.46.471.935.959,1.415,1.439l9.969,9.968c.458.458.921.934,1.369,1.4a41.074,41.074,0,0,0,5.924,5.328,15.885,15.885,0,0,0,8.382,2.939h.273c.194.006.391.011.584.011a16.553,16.553,0,0,0,11.709-28.261Z" transform="translate(-144.444 -194.431)"/>
      </g>
    </g>
  </g>
</svg>
