<svg xmlns="http://www.w3.org/2000/svg" xmlns:xlink="http://www.w3.org/1999/xlink" width="21" height="21" viewBox="0 0 21 21">
  <defs>
    <clipPath id="clip-Instagram">
      <rect width="21" height="21"/>
    </clipPath>
  </defs>
  <g id="Instagram" clip-path="url(#clip-Instagram)">
    <path id="_5279112_camera_instagram_social_media_instagram_logo_icon" data-name="5279112_camera_instagram_social media_instagram logo_icon" d="M106.423,96c-2.831,0-3.186.012-4.3.063a7.652,7.652,0,0,0-2.53.484A5.33,5.33,0,0,0,96.547,99.6a7.652,7.652,0,0,0-.484,2.53c-.051,1.112-.063,1.467-.063,4.3s.012,3.186.063,4.3a7.652,7.652,0,0,0,.484,2.53A5.33,5.33,0,0,0,99.6,116.3a7.654,7.654,0,0,0,2.53.484c1.112.051,1.467.063,4.3.063s3.186-.012,4.3-.063a7.653,7.653,0,0,0,2.53-.484,5.33,5.33,0,0,0,3.049-3.049,7.653,7.653,0,0,0,.484-2.53c.051-1.112.063-1.467.063-4.3s-.012-3.186-.063-4.3a7.653,7.653,0,0,0-.484-2.53,5.33,5.33,0,0,0-3.049-3.048,7.651,7.651,0,0,0-2.53-.484C109.609,96.012,109.254,96,106.423,96Zm0,1.878c2.783,0,3.113.011,4.212.061a5.768,5.768,0,0,1,1.935.359,3.452,3.452,0,0,1,1.978,1.978,5.766,5.766,0,0,1,.359,1.935c.05,1.1.061,1.429.061,4.212s-.011,3.113-.061,4.212a5.766,5.766,0,0,1-.359,1.935,3.452,3.452,0,0,1-1.978,1.978,5.766,5.766,0,0,1-1.935.359c-1.1.05-1.429.061-4.212.061s-3.113-.011-4.212-.061a5.766,5.766,0,0,1-1.935-.359,3.452,3.452,0,0,1-1.978-1.978,5.767,5.767,0,0,1-.359-1.935c-.05-1.1-.061-1.429-.061-4.212s.011-3.113.061-4.212a5.767,5.767,0,0,1,.359-1.935,3.452,3.452,0,0,1,1.978-1.978,5.767,5.767,0,0,1,1.935-.359C103.311,97.889,103.64,97.878,106.423,97.878Zm0,3.193a5.353,5.353,0,1,0,5.353,5.353A5.353,5.353,0,0,0,106.423,101.071Zm0,8.827a3.474,3.474,0,1,1,3.474-3.474A3.474,3.474,0,0,1,106.423,109.9Zm6.815-9.038a1.251,1.251,0,1,1-1.251-1.251A1.251,1.251,0,0,1,113.238,100.859Z" transform="translate(-95.678 -95.847)" fill="#50509f" fill-rule="evenodd"/>
  </g>
</svg>
