<svg id="icon_Social_Instagram_white" data-name="icon/Social/Instagram/white" xmlns="http://www.w3.org/2000/svg" xmlns:xlink="http://www.w3.org/1999/xlink" width="21.011" height="21.011" viewBox="0 0 21.011 21.011">
  <defs>
    <style>
      .cls-1 {
        fill: none;
      }

      .cls-2 {
        clip-path: url(#clip-path);
      }

      .cls-3 {
        fill: #50509f;
      }
    </style>
    <clipPath id="clip-path">
      <path id="Clip_2" data-name="Clip 2" class="cls-1" d="M0,0H21.011V21.011H0Z"/>
    </clipPath>
  </defs>
  <g id="Group_3" data-name="Group 3">
    <path id="Clip_2-2" data-name="Clip 2" class="cls-1" d="M0,0H21.011V21.011H0Z"/>
    <g id="Group_3-2" data-name="Group 3" class="cls-2">
      <path id="Fill_1" data-name="Fill 1" class="cls-3" d="M10.5,21c-2.835,0-3.208-.012-4.329-.063a7.743,7.743,0,0,1-2.549-.489,5.169,5.169,0,0,1-1.86-1.211A5.152,5.152,0,0,1,.551,17.378a7.783,7.783,0,0,1-.487-2.549C.012,13.708,0,13.335,0,10.5S.012,7.292.063,6.171A7.782,7.782,0,0,1,.551,3.622a5.169,5.169,0,0,1,1.211-1.86A5.169,5.169,0,0,1,3.622.551,7.782,7.782,0,0,1,6.171.063C7.292.012,7.665,0,10.5,0s3.208.012,4.329.063a7.783,7.783,0,0,1,2.549.487,5.152,5.152,0,0,1,1.859,1.211,5.169,5.169,0,0,1,1.211,1.86,7.743,7.743,0,0,1,.489,2.549C20.988,7.292,21,7.665,21,10.5s-.012,3.208-.063,4.329a7.744,7.744,0,0,1-.489,2.549,5.371,5.371,0,0,1-3.07,3.07,7.744,7.744,0,0,1-2.549.489C13.708,20.988,13.335,21,10.5,21Zm0-19.109c-2.805,0-3.137.011-4.243.062a5.766,5.766,0,0,0-1.949.362A3.253,3.253,0,0,0,3.1,3.1a3.253,3.253,0,0,0-.784,1.208,5.766,5.766,0,0,0-.362,1.949C1.9,7.363,1.891,7.695,1.891,10.5s.011,3.136.062,4.243a5.766,5.766,0,0,0,.362,1.949A3.25,3.25,0,0,0,3.1,17.9a3.254,3.254,0,0,0,1.208.786,5.791,5.791,0,0,0,1.949.362c1.111.05,1.444.061,4.243.061s3.132-.011,4.243-.061a5.791,5.791,0,0,0,1.949-.362,3.482,3.482,0,0,0,1.993-1.993,5.791,5.791,0,0,0,.362-1.949c.05-1.113.061-1.446.061-4.243s-.011-3.132-.061-4.243a5.791,5.791,0,0,0-.362-1.949A3.254,3.254,0,0,0,17.9,3.1a3.25,3.25,0,0,0-1.207-.784,5.766,5.766,0,0,0-1.949-.362C13.637,1.9,13.305,1.891,10.5,1.891Zm0,14A5.392,5.392,0,1,1,15.892,10.5,5.4,5.4,0,0,1,10.5,15.892ZM10.5,7A3.5,3.5,0,1,0,14,10.5,3.5,3.5,0,0,0,10.5,7Zm5.605-.845a1.26,1.26,0,1,1,1.26-1.26A1.262,1.262,0,0,1,16.105,6.154Z" transform="translate(0.751 -0.153)"/>
    </g>
  </g>
</svg>
