<svg xmlns="http://www.w3.org/2000/svg" width="21.98" height="21.011" viewBox="0 0 21.98 21.011">
  <path id="_5282542_linkedin_network_social_network_linkedin_logo_icon" data-name="5282542_linkedin_network_social network_linkedin logo_icon" d="M85.99,109.733V95.557H81.278v14.175Zm16.99,0V101.6c0-4.354-2.325-6.38-5.425-6.38a4.68,4.68,0,0,0-4.246,2.34V95.557H88.6c.062,1.33,0,14.175,0,14.175h4.711v-7.917a3.222,3.222,0,0,1,.155-1.15,2.579,2.579,0,0,1,2.417-1.723c1.7,0,2.387,1.3,2.387,3.205v7.584ZM83.666,88.722a2.456,2.456,0,1,0-.062,4.9h.03a2.457,2.457,0,1,0,.032-4.9Z" transform="translate(-81 -88.722)" fill="#50509f" fill-rule="evenodd"/>
</svg>
