<svg id="icon_Social_Twitter_white" data-name="icon/Social/Twitter/white" xmlns="http://www.w3.org/2000/svg" width="19.51" height="16.509" viewBox="0 0 19.51 16.509">
  <defs>
    <style>
      .cls-1 {
        fill: #50509f;
      }
    </style>
  </defs>
  <path id="Twitter" class="cls-1" d="M6.136,16.509c7.362,0,11.389-6.352,11.389-11.86,0-.181,0-.361-.012-.539a8.325,8.325,0,0,0,2-2.158,7.727,7.727,0,0,1-2.3.656A4.162,4.162,0,0,0,18.972.3a7.832,7.832,0,0,1-2.542,1.012,3.9,3.9,0,0,0-5.664-.181A4.285,4.285,0,0,0,9.608,5.116,11.224,11.224,0,0,1,1.358.761,4.276,4.276,0,0,0,2.6,6.325,3.853,3.853,0,0,1,.78,5.8v.053A4.133,4.133,0,0,0,3.992,9.942a3.829,3.829,0,0,1-1.807.071,4.03,4.03,0,0,0,3.739,2.9A7.83,7.83,0,0,1,.953,14.7,7.885,7.885,0,0,1,0,14.636a11.01,11.01,0,0,0,6.136,1.869"/>
</svg>
