<?xml version="1.0" encoding="utf-8"?>
<!-- Generator: Adobe Illustrator 22.0.0, SVG Export Plug-In . SVG Version: 6.00 Build 0)  -->
<svg version="1.1" id="Layer_1" xmlns="http://www.w3.org/2000/svg" xmlns:xlink="http://www.w3.org/1999/xlink" x="0px" y="0px"
	 viewBox="0 0 500 244" style="enable-background:new 0 0 500 244;" xml:space="preserve">
<style type="text/css">
	.st0{fill:#FFFFFF;}
</style>
<title>logo svg front</title>
<path id="Path_6108" class="st0" d="M450.9,46.9C432.3,28.3,407.3,17.2,381,16c-1.7-0.1-3.4-0.1-5-0.1l0,0
	c-20.4,0-40.3,5.8-57.4,16.9c-2.2,1.4-4.5,3-6.6,4.6c-0.9,0.7-1.9,1.4-2.8,2.2l-14.8-14.8L274.8,97l72.4-19.2l-13.8-13.9
	c1.2-0.8,2.4-1.7,3.6-2.4h0c11.6-7.5,25.1-11.4,38.9-11.4c1.1,0,2.3,0,3.4,0.1c39.7,1.7,70.4,35.3,68.7,75
	c-1.7,38.6-33.6,68.9-72.2,68.7c-0.8,0-1.7,0-2.5,0h-1.2c-28.7-1.5-47.4-20.6-69-42.7c-3-3-6-6.1-9.1-9.2L230.2,78
	c-2.9-2.9-5.9-6-8.8-8.9c-11.5-12.6-24.2-24-37.9-34.1c-15.7-11.3-34.4-17.8-53.7-18.8H128c-1.2,0-2.5-0.1-3.7-0.1
	C65.7,15.7,18,63,17.7,121.5c-0.3,57,44.5,104.1,101.5,106.5c1.7,0.1,3.4,0.1,5,0.1c20.4,0,40.3-5.8,57.4-16.8
	c2.3-1.4,4.5-3,6.6-4.6c0.9-0.7,1.9-1.4,2.8-2.2l14.8,14.9l19.6-72.3l-72.4,19.2l13.8,13.9c-1.2,0.9-2.4,1.7-3.6,2.4l0,0
	c-11.6,7.5-25.1,11.4-38.9,11.4l0,0c-1.1,0-2.3,0-3.4-0.1c-39.7-1.7-70.4-35.3-68.7-75c1.7-38.6,33.6-68.9,72.2-68.7
	c0.8,0,1.7,0,2.5,0h1.2c28.7,1.5,47.4,20.6,69,42.7c2.9,3,6,6.1,9.1,9.2L270,166c2.9,2.9,5.9,6,8.8,8.9c11.5,12.6,24.3,24,38,34.1
	c15.7,11.3,34.4,17.8,53.7,18.8h1.8c1.2,0,2.5,0.1,3.7,0.1c58.6,0,106.1-47.5,106.1-106C482.1,93.8,470.9,66.8,450.9,46.9
	L450.9,46.9z"/>
</svg>
