<svg xmlns="http://www.w3.org/2000/svg" width="120.363" height="28" viewBox="0 0 120.363 28">
  <defs>
    <style>
      .cls-1 {
        fill: #000;
      }
    </style>
  </defs>
  <g id="Group_9624" data-name="Group 9624" transform="translate(-647.03 -242.804)">
    <path id="Path_6063" data-name="Path 6063" class="cls-1" d="M660.708,257.375a4.851,4.851,0,0,0-4.586-2.748,4.555,4.555,0,0,0-3.476,1.5,5.318,5.318,0,0,0-1.4,3.771,5.153,5.153,0,0,0,1.43,3.723,4.768,4.768,0,0,0,3.587,1.486,5,5,0,0,0,2.764-.711,4.24,4.24,0,0,0,1.646-2.133h4.362a8.994,8.994,0,0,1-3.116,5.065,8.77,8.77,0,0,1-5.625,1.837,9.129,9.129,0,0,1-8.564-5.744,9.139,9.139,0,0,1-.7-3.491,9.329,9.329,0,0,1,.64-3.468,8.873,8.873,0,0,1,1.885-2.908,9.421,9.421,0,0,1,3.1-2.2,9.2,9.2,0,0,1,3.708-.751,8.848,8.848,0,0,1,5.592,1.838,8.617,8.617,0,0,1,3.116,4.938Z" transform="translate(0 -3.06)"/>
    <path id="Path_6064" data-name="Path 6064" class="cls-1" d="M693.407,250.6h4.33l4.282,12.272,4.713-12.272h4.283l-9.491,23.265h-4.218l2.461-6.183Z" transform="translate(-18.208 -3.06)"/>
    <path id="Path_6065" data-name="Path 6065" class="cls-1" d="M742.882,262.391a4.851,4.851,0,0,0,4.586,2.748,4.556,4.556,0,0,0,3.476-1.5,5.321,5.321,0,0,0,1.4-3.771,5.154,5.154,0,0,0-1.43-3.723,4.771,4.771,0,0,0-3.587-1.486,5,5,0,0,0-2.764.711,4.238,4.238,0,0,0-1.645,2.133h-4.362a8.993,8.993,0,0,1,3.116-5.066,8.77,8.77,0,0,1,5.625-1.837,9.128,9.128,0,0,1,8.564,5.745,9.137,9.137,0,0,1,.7,3.491,9.326,9.326,0,0,1-.64,3.468,8.874,8.874,0,0,1-1.885,2.908,9.4,9.4,0,0,1-3.1,2.2,9.193,9.193,0,0,1-3.708.751,8.847,8.847,0,0,1-5.592-1.838,8.616,8.616,0,0,1-3.116-4.938Z" transform="translate(-35.919 -3.06)"/>
    <path id="Path_6066" data-name="Path 6066" class="cls-1" d="M788.527,266.069V242.8h3.995v23.265Z" transform="translate(-55.551 0)"/>
    <path id="Path_6067" data-name="Path 6067" class="cls-1" d="M819.234,261.209a4.359,4.359,0,0,0,1.51,3,5.05,5.05,0,0,0,3.363,1.095,5.231,5.231,0,0,0,2.469-.575,4.4,4.4,0,0,0,1.734-1.614h4.41a9.581,9.581,0,0,1-3.347,4.466,8.645,8.645,0,0,1-5.154,1.59,9.255,9.255,0,0,1-3.619-.695,8.866,8.866,0,0,1-2.964-2.054,9.457,9.457,0,0,1-2.62-6.487,9.446,9.446,0,0,1,.631-3.459,8.87,8.87,0,0,1,1.862-2.917,9.6,9.6,0,0,1,3.036-2.189,8.4,8.4,0,0,1,3.5-.767,9.053,9.053,0,0,1,4.266,1.039,9.83,9.83,0,0,1,3.372,2.924,7.876,7.876,0,0,1,1.254,2.54,11.624,11.624,0,0,1,.408,3.228c0,.1-.006.243-.016.44s-.016.343-.016.439Zm9.7-3.244a4.991,4.991,0,0,0-1.766-2.676,5.1,5.1,0,0,0-3.124-.919,4.689,4.689,0,0,0-2.924.991,4.8,4.8,0,0,0-1.741,2.6Z" transform="translate(-65.951 -3.06)"/>
  </g>
</svg>
