<svg id="Group_10001" data-name="Group 10001" xmlns="http://www.w3.org/2000/svg" width="144.837" height="33.694" viewBox="0 0 144.837 33.694">
  <path id="Path_6063" data-name="Path 6063" d="M663.489,258.752a5.837,5.837,0,0,0-5.518-3.307,5.481,5.481,0,0,0-4.182,1.808,6.4,6.4,0,0,0-1.682,4.537,6.2,6.2,0,0,0,1.721,4.48,5.738,5.738,0,0,0,4.317,1.789,6.02,6.02,0,0,0,3.326-.856,5.1,5.1,0,0,0,1.98-2.566H668.7a10.823,10.823,0,0,1-3.75,6.1,10.554,10.554,0,0,1-6.768,2.211,10.985,10.985,0,0,1-10.306-6.912,11,11,0,0,1-.846-4.2,11.226,11.226,0,0,1,.77-4.173,10.678,10.678,0,0,1,2.269-3.5,11.337,11.337,0,0,1,3.73-2.653,11.064,11.064,0,0,1,4.461-.9,10.647,10.647,0,0,1,6.73,2.212,10.369,10.369,0,0,1,3.75,5.942Z" transform="translate(-647.03 -244.902)"/>
  <path id="Path_6064" data-name="Path 6064" d="M693.407,250.6h5.211l5.153,14.767,5.672-14.767H714.6l-11.421,28H698.1l2.961-7.441Z" transform="translate(-659.51 -244.902)"/>
  <path id="Path_6065" data-name="Path 6065" d="M743.769,264.789a5.837,5.837,0,0,0,5.518,3.307,5.483,5.483,0,0,0,4.182-1.807,6.4,6.4,0,0,0,1.682-4.538,6.2,6.2,0,0,0-1.721-4.48,5.741,5.741,0,0,0-4.317-1.788,6.02,6.02,0,0,0-3.326.856,5.1,5.1,0,0,0-1.98,2.567h-5.249a10.822,10.822,0,0,1,3.75-6.1,10.553,10.553,0,0,1,6.768-2.211,10.984,10.984,0,0,1,10.306,6.913,10.993,10.993,0,0,1,.846,4.2,11.222,11.222,0,0,1-.77,4.173,10.677,10.677,0,0,1-2.269,3.5,11.319,11.319,0,0,1-3.73,2.653,11.063,11.063,0,0,1-4.462.9,10.646,10.646,0,0,1-6.729-2.212,10.368,10.368,0,0,1-3.75-5.942Z" transform="translate(-671.649 -244.902)"/>
  <path id="Path_6066" data-name="Path 6066" d="M788.527,270.8v-28h4.807v28Z" transform="translate(-685.105 -242.804)"/>
  <path id="Path_6067" data-name="Path 6067" d="M820.092,263.367a5.245,5.245,0,0,0,1.817,3.606,6.077,6.077,0,0,0,4.047,1.317,6.3,6.3,0,0,0,2.971-.692,5.292,5.292,0,0,0,2.086-1.943h5.307a11.53,11.53,0,0,1-4.028,5.374,10.4,10.4,0,0,1-6.2,1.914,11.138,11.138,0,0,1-4.355-.836,10.669,10.669,0,0,1-3.567-2.471,11.38,11.38,0,0,1-3.153-7.806,11.367,11.367,0,0,1,.759-4.163,10.674,10.674,0,0,1,2.24-3.51,11.556,11.556,0,0,1,3.653-2.634,10.112,10.112,0,0,1,4.211-.923,10.894,10.894,0,0,1,5.134,1.251,11.828,11.828,0,0,1,4.057,3.519,9.478,9.478,0,0,1,1.509,3.057,13.989,13.989,0,0,1,.49,3.884c0,.115-.007.292-.02.529s-.019.413-.019.528Zm11.671-3.9a6.006,6.006,0,0,0-2.125-3.22,6.135,6.135,0,0,0-3.759-1.106,5.642,5.642,0,0,0-3.519,1.192,5.779,5.779,0,0,0-2.1,3.134Z" transform="translate(-692.233 -244.902)"/>
</svg>
