<?xml version="1.0" encoding="utf-8"?>
<!-- Generator: Adobe Illustrator 26.0.0, SVG Export Plug-In . SVG Version: 6.00 Build 0)  -->
<svg version="1.1" id="Layer_1" xmlns="http://www.w3.org/2000/svg" xmlns:xlink="http://www.w3.org/1999/xlink" x="0px" y="0px"
	 viewBox="0 0 260.2 86.5" style="enable-background:new 0 0 260.2 86.5;" xml:space="preserve">
<style type="text/css">
	.st0{fill:#50509F;}
	.st1{fill:#FFFFFF;}
</style>
<g id="Group_10034" transform="translate(-257.5 -5275.5)">
	<g id="home" transform="translate(265 5281.003)">
		<g transform="matrix(1, 0, 0, 1, -7.5, -5.5)">
			<circle id="Ellipse_1-2" class="st0" cx="36.4" cy="42" r="32.5"/>
		</g>
		<g transform="matrix(1, 0, 0, 1, -7.5, -5.5)">
			<path id="Rectangle_17436-2" class="st0" d="M16.9,5.5h37c9.4,0,17,7.6,17,17v37c0,9.4-7.6,17-17,17h-37c-9.4,0-17-7.6-17-17v-37
				C-0.1,13.1,7.5,5.5,16.9,5.5z"/>
		</g>
	</g>
	<path id="Path_6653" class="st1" d="M314.2,5308.7c-1.9-1.9-4.5-3.1-7.2-3.2c-0.2,0-0.3,0-0.5,0l0,0c-2.1,0-4.2,0.6-5.9,1.7
		c-0.2,0.1-0.5,0.3-0.7,0.5c-0.1,0.1-0.2,0.1-0.3,0.2l-1.5-1.5l-2,7.5l7.5-2l-1.4-1.4c0.1-0.1,0.2-0.2,0.4-0.3h0
		c1.2-0.8,2.6-1.2,4-1.2c0.1,0,0.2,0,0.4,0c4.1,0.2,7.3,3.7,7.1,7.8c-0.2,4-3.5,7.1-7.4,7.1c-0.1,0-0.2,0-0.3,0h0H306h0
		c-3-0.2-4.9-2.1-7.1-4.4c-0.3-0.3-0.6-0.6-0.9-1l-6.6-6.6c-0.3-0.3-0.6-0.6-0.9-0.9c-1.2-1.3-2.5-2.5-3.9-3.5
		c-1.6-1.2-3.6-1.8-5.6-1.9h-0.1h0h-0.1c-0.1,0-0.3,0-0.4,0c-6.1,0-11,4.9-11,11c0,5.9,4.6,10.7,10.5,11c0.2,0,0.3,0,0.5,0
		c2.1,0,4.2-0.6,5.9-1.7c0.2-0.1,0.5-0.3,0.7-0.5c0.1-0.1,0.2-0.1,0.3-0.2l1.5,1.5l2-7.5l-7.5,2l1.4,1.4c-0.1,0.1-0.2,0.2-0.4,0.3h0
		c-1.2,0.8-2.6,1.2-4,1.2l0,0c-0.1,0-0.2,0-0.4,0c-4.1-0.2-7.3-3.7-7.1-7.8c0.2-4,3.5-7.1,7.4-7.1c0.1,0,0.2,0,0.3,0h0h0.1h0
		c3,0.2,4.9,2.1,7.1,4.4c0.3,0.3,0.6,0.6,0.9,1l6.6,6.6c0.3,0.3,0.6,0.6,0.9,0.9c1.2,1.3,2.5,2.5,3.9,3.5c1.6,1.2,3.6,1.8,5.6,2h0.1
		h0h0.1c0.1,0,0.3,0,0.4,0c6.1,0,11-4.9,11-11C317.4,5313.6,316.2,5310.8,314.2,5308.7L314.2,5308.7z"/>
	<g id="Group_10001" transform="translate(372.864 5299.656)">
		<path id="Path_6063" d="M8.8,13.9c-1-2.1-3.2-3.4-5.5-3.3c-1.6,0-3.1,0.6-4.2,1.8c-1.1,1.2-1.7,2.9-1.7,4.5
			c-0.1,1.7,0.6,3.3,1.7,4.5c1.1,1.2,2.7,1.8,4.3,1.8c1.2,0,2.3-0.3,3.3-0.9c0.9-0.6,1.6-1.5,2-2.6H14c-0.5,2.4-1.8,4.6-3.8,6.1
			C8.4,27.3,6,28.1,3.5,28c-4.5,0-8.6-2.7-10.3-6.9c-0.6-1.3-0.8-2.8-0.8-4.2c0-1.4,0.3-2.8,0.8-4.2c0.5-1.3,1.3-2.5,2.3-3.5
			c1-1.1,2.3-2,3.7-2.7C0.5,6,2.1,5.7,3.6,5.7C6,5.7,8.4,6.4,10.3,7.9c1.9,1.5,3.2,3.6,3.8,5.9L8.8,13.9z"/>
		<path id="Path_6064" d="M26.3,5.7h5.2l5.2,14.8l5.7-14.8h5.2L36,33.7H31l3-7.4L26.3,5.7z"/>
		<path id="Path_6065" d="M64.5,19.9c1,2.1,3.2,3.4,5.5,3.3c1.6,0,3.1-0.6,4.2-1.8c1.1-1.2,1.7-2.9,1.7-4.5c0.1-1.7-0.6-3.3-1.7-4.5
			c-1.1-1.2-2.7-1.8-4.3-1.8c-1.2,0-2.3,0.3-3.3,0.9c-0.9,0.6-1.6,1.5-2,2.6h-5.2c0.5-2.4,1.8-4.6,3.8-6.1c1.9-1.5,4.3-2.3,6.8-2.2
			c4.5,0,8.6,2.7,10.3,6.9c0.6,1.3,0.8,2.8,0.8,4.2c0,1.4-0.3,2.8-0.8,4.2c-0.5,1.3-1.3,2.5-2.3,3.5c-1,1.1-2.3,2-3.7,2.7
			c-1.4,0.6-2.9,0.9-4.5,0.9c-2.4,0.1-4.8-0.7-6.7-2.2c-1.9-1.5-3.2-3.6-3.8-5.9L64.5,19.9z"/>
		<path id="Path_6066" d="M95.8,28V0h4.8v28H95.8z"/>
		<path id="Path_6067" d="M120.2,18.5c0.1,1.4,0.8,2.7,1.8,3.6c1.1,0.9,2.6,1.4,4,1.3c1,0,2.1-0.2,3-0.7c0.9-0.4,1.6-1.1,2.1-1.9
			h5.3c-0.8,2.2-2.2,4-4,5.4c-1.8,1.3-4,2-6.2,1.9c-1.5,0-3-0.3-4.4-0.8c-1.3-0.6-2.6-1.4-3.6-2.5c-2-2.1-3.1-4.9-3.2-7.8
			c0-1.4,0.2-2.8,0.8-4.2c0.5-1.3,1.3-2.5,2.2-3.5c1-1.1,2.3-2,3.7-2.6c1.3-0.6,2.8-0.9,4.2-0.9c1.8,0,3.6,0.4,5.1,1.3
			c1.6,0.8,3,2.1,4.1,3.5c0.7,0.9,1.2,2,1.5,3.1c0.3,1.3,0.5,2.6,0.5,3.9c0,0.1,0,0.3,0,0.5s0,0.4,0,0.5L120.2,18.5z M131.9,14.6
			c-0.3-1.3-1.1-2.4-2.1-3.2c-1.1-0.8-2.4-1.2-3.8-1.1c-1.3,0-2.5,0.4-3.5,1.2c-1,0.8-1.8,1.9-2.1,3.1H131.9z"/>
	</g>
</g>
</svg>
