<svg xmlns="http://www.w3.org/2000/svg" xmlns:xlink="http://www.w3.org/1999/xlink" width="48" height="22" viewBox="0 0 48 22">
  <defs>
    <style>
      .cls-1 {
        clip-path: url(#clip-BELO);
      }

      .cls-2 {
        fill: #fff;
      }
    </style>
    <clipPath id="clip-BELO">
      <rect width="48" height="22"/>
    </clipPath>
  </defs>
  <g id="BELO" class="cls-1">
    <path id="Path_6653" data-name="Path 6653" class="cls-2" d="M179.525,504.8a10.956,10.956,0,0,0-7.235-3.2c-.173-.008-.348-.012-.52-.012h0a10.941,10.941,0,0,0-5.944,1.744c-.233.149-.464.31-.685.479-.1.073-.192.148-.287.225l-1.528-1.537-2.027,7.486,7.5-1.986-1.43-1.437c.121-.089.244-.174.369-.254l.006,0a7.413,7.413,0,0,1,4.029-1.18c.117,0,.236,0,.352.008a7.441,7.441,0,0,1-.362,14.873c-.088,0-.176,0-.262,0h-.027l-.055,0-.043,0c-2.973-.153-4.9-2.131-7.137-4.421-.3-.313-.62-.636-.939-.954l-6.611-6.611c-.3-.3-.611-.618-.908-.923a27.185,27.185,0,0,0-3.928-3.533,10.534,10.534,0,0,0-5.558-1.95l-.078,0-.038,0-.066,0c-.128,0-.259-.007-.388-.007a10.976,10.976,0,0,0-.53,21.94c.174.008.349.013.521.012a10.94,10.94,0,0,0,5.942-1.743c.234-.15.465-.311.688-.48.1-.073.192-.148.287-.225l1.528,1.537,2.027-7.486-7.5,1.986,1.43,1.437c-.121.089-.244.174-.369.254l-.006,0a7.412,7.412,0,0,1-4.029,1.18h0c-.117,0-.236,0-.352-.008a7.441,7.441,0,0,1,.362-14.873c.088,0,.176,0,.262,0h.027l.055,0,.043,0c2.974.153,4.9,2.131,7.137,4.421.3.313.62.636.939.954l6.611,6.611c.3.3.611.619.908.923a27.183,27.183,0,0,0,3.928,3.533,10.532,10.532,0,0,0,5.558,1.95l.078,0,.038,0,.066,0c.128,0,.259.007.387.007a10.976,10.976,0,0,0,7.765-18.741Z" transform="translate(-134.747 -501.592)"/>
  </g>
</svg>
