<?xml version="1.0" encoding="utf-8"?>
<!-- Generator: Adobe Illustrator 22.0.0, SVG Export Plug-In . SVG Version: 6.00 Build 0)  -->
<svg version="1.1" id="Layer_1" xmlns="http://www.w3.org/2000/svg" xmlns:xlink="http://www.w3.org/1999/xlink" x="0px" y="0px"
	 viewBox="0 0 100 100" style="enable-background:new 0 0 100 100;" xml:space="preserve">
<style type="text/css">
	.st0{fill:#50509F;}
	.st1{fill:#FFFFFF;}
	.st2{fill:#EEEFF1;}
</style>
<path class="st0" d="M-161.4-20.5c-0.3-13.5,11.3-25.1,25-25.1c13.6,0,25.1,11.5,25,25.2c0,13.5-11.5,25-25.2,24.9
	C-150.3,4.5-161.7-7.2-161.4-20.5z M-134.2-11.6c0-1.7,0-3.4,0-5.1c0-0.5,0.1-0.8,0.7-0.7c1,0.1,2.1,0,3.1,0c0.7,0,0.9-0.3,0.9-0.9
	c0-1.3,0-2.5,0-3.8c0-0.7-0.3-0.9-0.9-0.9c-1.1,0-2.1,0-3.2,0c-0.4,0-0.6-0.1-0.5-0.5c0-0.8,0-1.5,0-2.3c0-1.1,0.5-1.6,1.6-1.6
	c0.8,0,1.6,0,2.3,0c0.6,0,0.9-0.2,0.9-0.8c0-1.2,0-2.4,0-3.6c0-0.6-0.2-0.8-0.8-0.8c-1.2,0-2.5,0-3.7,0c-2.9,0.1-5.2,1.9-5.8,4.8
	c-0.3,1.3-0.2,2.7-0.2,4.1c0,0.5-0.1,0.8-0.7,0.7c-0.8-0.1-1.7,0-2.5,0c-0.6,0-0.8,0.2-0.8,0.8c0,1.3,0,2.6,0,3.9
	c0,0.6,0.3,0.8,0.8,0.8c0.8,0,1.6,0,2.5,0c0.6,0,0.8,0.2,0.8,0.8c0,3.3,0,6.7,0,10c0,0.8,0.2,0.9,0.9,0.9c1.3,0,2.6,0,3.9,0
	c0.6,0,0.9-0.2,0.9-0.9C-134.3-8.3-134.2-9.9-134.2-11.6z"/>
<path class="st0" d="M-85-0.9c-0.4-13.3,11.2-24.8,24.6-25C-47-26.2-35.1-15-35-1.2c0.1,13.7-11.3,25.4-25,25.3
	C-74.1,24.1-85.4,12.2-85-0.9z M-60.1,12.6c1.9,0,3.8,0,5.7,0c3.6-0.1,6.4-2.9,6.5-6.4c0.1-3.8,0.1-7.6,0-11.4
	c-0.1-3.6-3.1-6.4-6.7-6.4c-3.7,0-7.3,0-11,0c-3.6,0-6.6,3-6.7,6.6c0,3.7,0,7.4,0,11.1c0,3.6,2.9,6.5,6.5,6.6
	C-63.8,12.6-62,12.6-60.1,12.6z"/>
<path class="st1" d="M58.3,75.3c0,5.6-0.1,11.2,0,16.8c0,2.2-0.8,3-3,3c-4.4-0.1-8.7,0-13.1,0c-2.6,0-3.1-0.5-3.1-3.1
	c0-11.2-0.1-22.3,0-33.5c0-2-0.5-2.7-2.5-2.5c-2.7,0.2-5.5,0-8.3,0.1c-1.9,0-2.8-0.8-2.8-2.7c0.1-4.4,0.1-8.7,0-13.1
	c0-2,0.8-2.8,2.7-2.8c2.8,0,5.7-0.1,8.5,0.1c2,0.1,2.4-0.7,2.3-2.5c-0.1-4.6-0.3-9.2,0.7-13.7C42,11.5,49.4,5.3,59.3,5
	c4.1-0.1,8.3,0,12.4,0c2,0,2.8,0.8,2.7,2.8c-0.1,4-0.1,8,0,11.9c0,2.1-0.9,2.9-2.9,2.8c-2.6-0.1-5.2-0.1-7.8,0
	c-3.7,0.1-5.3,1.7-5.4,5.4c-0.1,2.5,0,5.1-0.1,7.6c-0.1,1.4,0.4,1.9,1.8,1.8c3.6-0.1,7.2,0,10.8,0c2.1,0,3.1,0.8,3,3
	c-0.1,4.2-0.1,8.4,0,12.6c0,2.1-0.8,3.1-3,3c-3.4-0.1-6.9,0.1-10.3-0.1c-2-0.1-2.4,0.7-2.3,2.5C58.3,64,58.3,69.6,58.3,75.3z"/>
<g>
	<path class="st1" d="M205.2,59.1c1-1.2,1.6-1.9,2.2-2.6c7.2-8.7,25.6-8,31.6,4.4c1.9,4,2.8,8.1,2.9,12.5c0.1,10.3,0,20.5,0,30.8
		c0,1.3-0.3,1.8-1.7,1.8c-4.9-0.1-9.7-0.1-14.6,0c-1.5,0-1.8-0.5-1.8-1.9c0.1-8.9,0-17.8,0-26.7c0-1.9-0.1-3.8-0.6-5.7
		c-0.9-3.2-2.6-5.7-6.1-6.5c-3.6-0.8-6.7,0.1-9.2,2.7c-2,2.1-2.9,4.5-2.9,7.4c0.1,9.5,0,19,0.1,28.5c0,1.7-0.5,2.2-2.2,2.1
		c-4.6-0.1-9.3-0.1-14,0c-1.5,0-2-0.3-2-1.9c0.1-16.6,0.1-33.2,0-49.9c0-1.7,0.4-2.2,2.1-2.2c4.7,0.1,9.4,0.1,14.2,0
		c1.3,0,1.9,0.4,1.8,1.7C205.1,55.3,205.2,56.9,205.2,59.1z"/>
	<path class="st1" d="M177.3,79.1c0,8.3,0,16.5,0,24.8c0,1.5-0.3,2.2-2,2.1c-4.8-0.1-9.6-0.1-14.4,0c-1.4,0-1.7-0.4-1.7-1.8
		c0-16.8,0-33.6,0-50.5c0-1.4,0.5-1.7,1.8-1.7c4.8,0.1,9.6,0.1,14.4,0c1.6,0,1.9,0.5,1.9,2C177.3,62.4,177.3,70.7,177.3,79.1z"/>
	<path class="st1" d="M168.2,44.7c-5.8,0-10-3.9-10.1-9.3c-0.1-5.4,4.3-9.4,10.2-9.4c5.9,0,10.2,4.1,10.1,9.5
		C178.4,40.9,174.1,44.7,168.2,44.7z"/>
</g>
<path class="st2" d="M-60.1,12.6c-1.9,0-3.7,0-5.6,0c-3.6-0.1-6.4-3-6.5-6.6c0-3.7,0-7.4,0-11.1c0-3.6,3-6.6,6.7-6.6
	c3.6,0,7.3,0,11,0c3.6,0,6.6,2.8,6.7,6.4c0.1,3.8,0.1,7.6,0,11.4c-0.1,3.6-2.9,6.4-6.5,6.4C-56.3,12.6-58.2,12.6-60.1,12.6z
	 M-60.1,10.4c1.8,0,3.6,0,5.4,0c2.7,0,4.6-1.9,4.6-4.6c0-3.5,0-7.1,0-10.6c0-2.8-2-4.7-4.7-4.7c-3.5,0-7,0-10.5,0
	c-2.8,0-4.8,2-4.8,4.8c0,3.5,0,6.9,0,10.4c0,2.8,1.9,4.7,4.7,4.7C-63.5,10.4-61.8,10.4-60.1,10.4z"/>
<path class="st0" d="M-60.1,10.4c-1.7,0-3.5,0-5.2,0c-2.8,0-4.7-2-4.7-4.7c0-3.5,0-6.9,0-10.4c0-2.8,2-4.8,4.8-4.8c3.5,0,7,0,10.5,0
	c2.7,0,4.7,1.9,4.7,4.7c0,3.5,0,7.1,0,10.6c0,2.7-1.9,4.6-4.6,4.6C-56.5,10.4-58.3,10.4-60.1,10.4z M-60,6.7c3.5,0,6.3-2.8,6.3-6.2
	c0-3.5-2.8-6.3-6.3-6.3c-3.5,0-6.3,2.8-6.3,6.3C-66.3,3.9-63.5,6.7-60,6.7z M-55.1-6.1c0,0.8,0.7,1.6,1.5,1.6c0.9,0,1.6-0.7,1.6-1.6
	c0-0.9-0.6-1.6-1.5-1.6C-54.4-7.6-55.1-7-55.1-6.1z"/>
<path class="st2" d="M-60,6.7c-3.5,0-6.3-2.8-6.3-6.2c0-3.4,2.8-6.3,6.3-6.3c3.5,0,6.3,2.8,6.3,6.3C-53.7,3.9-56.5,6.7-60,6.7z
	 M-60-3.6c-2.3,0-4.1,1.9-4.1,4.1c0,2.2,1.9,4.1,4.1,4.1c2.2,0,4.1-1.9,4.1-4.1C-55.9-1.8-57.8-3.6-60-3.6z"/>
<path class="st2" d="M-55.1-6.1c0-0.9,0.7-1.6,1.6-1.5c0.9,0,1.5,0.7,1.5,1.6c0,0.9-0.8,1.6-1.6,1.6C-54.4-4.5-55.1-5.2-55.1-6.1z"
	/>
<path class="st0" d="M-60-3.6c2.3,0,4.1,1.8,4.1,4.1c0,2.2-1.8,4.1-4.1,4.1c-2.2,0-4.1-1.8-4.1-4.1C-64.1-1.8-62.3-3.6-60-3.6z"/>
</svg>
