<?xml version="1.0" encoding="utf-8"?>
<!-- Generator: Adobe Illustrator 22.0.0, SVG Export Plug-In . SVG Version: 6.00 Build 0)  -->
<svg version="1.1" id="Layer_1" xmlns="http://www.w3.org/2000/svg" xmlns:xlink="http://www.w3.org/1999/xlink" x="0px" y="0px"
	 viewBox="0 0 100 100" style="enable-background:new 0 0 100 100;" xml:space="preserve">
<style type="text/css">
	.st0{fill:#50509F;}
	.st1{fill:#FFFFFF;}
</style>
<path class="st0" d="M-161.4-20.5c-0.3-13.5,11.3-25.1,25-25.1c13.6,0,25.1,11.5,25,25.2c0,13.5-11.5,25-25.2,24.9
	C-150.3,4.5-161.7-7.2-161.4-20.5z M-134.2-11.6c0-1.7,0-3.4,0-5.1c0-0.5,0.1-0.8,0.7-0.7c1,0.1,2.1,0,3.1,0c0.7,0,0.9-0.3,0.9-0.9
	c0-1.3,0-2.5,0-3.8c0-0.7-0.3-0.9-0.9-0.9c-1.1,0-2.1,0-3.2,0c-0.4,0-0.6-0.1-0.5-0.5c0-0.8,0-1.5,0-2.3c0-1.1,0.5-1.6,1.6-1.6
	c0.8,0,1.6,0,2.3,0c0.6,0,0.9-0.2,0.9-0.8c0-1.2,0-2.4,0-3.6c0-0.6-0.2-0.8-0.8-0.8c-1.2,0-2.5,0-3.7,0c-2.9,0.1-5.2,1.9-5.8,4.8
	c-0.3,1.3-0.2,2.7-0.2,4.1c0,0.5-0.1,0.8-0.7,0.7c-0.8-0.1-1.7,0-2.5,0c-0.6,0-0.8,0.2-0.8,0.8c0,1.3,0,2.6,0,3.9
	c0,0.6,0.3,0.8,0.8,0.8c0.8,0,1.6,0,2.5,0c0.6,0,0.8,0.2,0.8,0.8c0,3.3,0,6.7,0,10c0,0.8,0.2,0.9,0.9,0.9c1.3,0,2.6,0,3.9,0
	c0.6,0,0.9-0.2,0.9-0.9C-134.3-8.3-134.2-9.9-134.2-11.6z"/>
<path class="st0" d="M-46-37.9c-0.4-13.3,11.2-24.8,24.6-25C-8-63.2,3.9-52,4-38.2C4.1-24.4-7.3-12.8-21-12.8
	C-35.1-12.9-46.4-24.8-46-37.9z M-21.1-24.4c1.9,0,3.8,0,5.7,0c3.6-0.1,6.4-2.9,6.5-6.4c0.1-3.8,0.1-7.6,0-11.4
	c-0.1-3.6-3.1-6.4-6.7-6.4c-3.7,0-7.3,0-11,0c-3.6,0-6.6,3-6.7,6.6c0,3.7,0,7.4,0,11.1c0,3.6,2.9,6.5,6.5,6.6
	C-24.8-24.4-23-24.4-21.1-24.4z"/>
<path class="st1" d="M180.3-9.7c0,5.6-0.1,11.2,0,16.8c0,2.2-0.8,3-3,3c-4.4-0.1-8.7,0-13.1,0c-2.6,0-3.1-0.5-3.1-3.1
	c0-11.2-0.1-22.3,0-33.5c0-2-0.5-2.7-2.5-2.5c-2.7,0.2-5.5,0-8.3,0.1c-1.9,0-2.8-0.8-2.8-2.7c0.1-4.4,0.1-8.7,0-13.1
	c0-2,0.8-2.8,2.7-2.8c2.8,0,5.7-0.1,8.5,0.1c2,0.1,2.4-0.7,2.3-2.5c-0.1-4.6-0.3-9.2,0.7-13.7c2.1-9.6,9.5-15.8,19.4-16.1
	c4.1-0.1,8.3,0,12.4,0c2,0,2.8,0.8,2.7,2.8c-0.1,4-0.1,8,0,11.9c0,2.1-0.9,2.9-2.9,2.8c-2.6-0.1-5.2-0.1-7.8,0
	c-3.7,0.1-5.3,1.7-5.4,5.4c-0.1,2.5,0,5.1-0.1,7.6c-0.1,1.4,0.4,1.9,1.8,1.8c3.6-0.1,7.2,0,10.8,0c2.1,0,3.1,0.8,3,3
	c-0.1,4.2-0.1,8.4,0,12.6c0,2.1-0.8,3.1-3,3c-3.4-0.1-6.9,0.1-10.3-0.1c-2-0.1-2.4,0.7-2.3,2.5C180.3-21,180.3-15.4,180.3-9.7z"/>
<g>
	<path class="st1" d="M205.2,59.1c1-1.2,1.6-1.9,2.2-2.6c7.2-8.7,25.6-8,31.6,4.4c1.9,4,2.8,8.1,2.9,12.5c0.1,10.3,0,20.5,0,30.8
		c0,1.3-0.3,1.8-1.7,1.8c-4.9-0.1-9.7-0.1-14.6,0c-1.5,0-1.8-0.5-1.8-1.9c0.1-8.9,0-17.8,0-26.7c0-1.9-0.1-3.8-0.6-5.7
		c-0.9-3.2-2.6-5.7-6.1-6.5c-3.6-0.8-6.7,0.1-9.2,2.7c-2,2.1-2.9,4.5-2.9,7.4c0.1,9.5,0,19,0.1,28.5c0,1.7-0.5,2.2-2.2,2.1
		c-4.6-0.1-9.3-0.1-14,0c-1.5,0-2-0.3-2-1.9c0.1-16.6,0.1-33.2,0-49.9c0-1.7,0.4-2.2,2.1-2.2c4.7,0.1,9.4,0.1,14.2,0
		c1.3,0,1.9,0.4,1.8,1.7C205.1,55.3,205.2,56.9,205.2,59.1z"/>
	<path class="st1" d="M177.3,79.1c0,8.3,0,16.5,0,24.8c0,1.5-0.3,2.2-2,2.1c-4.8-0.1-9.6-0.1-14.4,0c-1.4,0-1.7-0.4-1.7-1.8
		c0-16.8,0-33.6,0-50.5c0-1.4,0.5-1.7,1.8-1.7c4.8,0.1,9.6,0.1,14.4,0c1.6,0,1.9,0.5,1.9,2C177.3,62.4,177.3,70.7,177.3,79.1z"/>
	<path class="st1" d="M168.2,44.7c-5.8,0-10-3.9-10.1-9.3c-0.1-5.4,4.3-9.4,10.2-9.4c5.9,0,10.2,4.1,10.1,9.5
		C178.4,40.9,174.1,44.7,168.2,44.7z"/>
</g>
<path class="st0" d="M13.9-32.6c-1.7,0-3.5,0-5.2,0c-2.8,0-4.7-2-4.7-4.7c0-3.5,0-6.9,0-10.4c0-2.8,2-4.8,4.8-4.8c3.5,0,7,0,10.5,0
	c2.7,0,4.7,1.9,4.7,4.7c0,3.5,0,7.1,0,10.6c0,2.7-1.9,4.6-4.6,4.6C17.5-32.6,15.7-32.6,13.9-32.6z M14-36.3c3.5,0,6.3-2.8,6.3-6.2
	c0-3.5-2.8-6.3-6.3-6.3c-3.5,0-6.3,2.8-6.3,6.3C7.7-39.1,10.5-36.3,14-36.3z M18.9-49.1c0,0.8,0.7,1.6,1.5,1.6
	c0.9,0,1.6-0.7,1.6-1.6c0-0.9-0.6-1.6-1.5-1.6C19.6-50.6,18.9-50,18.9-49.1z"/>
<g>
	<path class="st1" d="M49.8,92c-6.5,0-12.9,0.1-19.4,0C18,91.6,8.1,81.6,7.9,69.2c-0.1-12.8-0.1-25.6,0-38.3C8,18.3,18.4,8.1,31,8
		C43.6,8,56.3,8,68.9,8c12.5,0,22.8,9.8,23.1,22.3c0.3,13.1,0.3,26.2,0,39.3c-0.2,12.3-10.2,22-22.5,22.3C62.9,92.1,56.3,92,49.8,92
		z M49.8,84.5c6.2,0,12.5,0.1,18.7,0c9.3-0.1,16-6.7,16-16c0.1-12.2,0.1-24.5,0-36.7c-0.1-9.5-6.8-16.2-16.3-16.2
		c-12.1,0-24.1,0-36.2,0c-9.7,0-16.5,6.8-16.5,16.5c0,12,0,24,0,36c0,9.6,6.7,16.3,16.3,16.4C37.8,84.5,43.8,84.5,49.8,84.5z"/>
	<path class="st1" d="M50,71.6C37.9,71.6,28.3,62,28.3,50c0-11.9,9.8-21.6,21.7-21.6c12,0,21.7,9.7,21.7,21.6
		C71.7,62,62,71.6,50,71.6z M49.9,35.9c-7.8,0-14.2,6.4-14.1,14.2c0.1,7.7,6.6,14.2,14.2,14.1c7.7-0.1,14.1-6.5,14.1-14.2
		C64.1,42.2,57.7,35.9,49.9,35.9z"/>
	<path class="st1" d="M67,27.5c0.1-3.1,2.5-5.4,5.7-5.3c3.1,0.1,5.3,2.4,5.3,5.5c-0.1,3.1-2.6,5.5-5.6,5.4
		C69.4,32.9,67,30.4,67,27.5z"/>
</g>
<path class="st0" d="M-64-31.6c2.3,0,4.1,1.8,4.1,4.1c0,2.2-1.8,4.1-4.1,4.1c-2.2,0-4.1-1.8-4.1-4.1C-68.1-29.8-66.3-31.6-64-31.6z"
	/>
</svg>
