<?xml version="1.0" encoding="utf-8"?>
<!-- Generator: Adobe Illustrator 23.0.3, SVG Export Plug-In . SVG Version: 6.00 Build 0)  -->
<svg version="1.1" id="Layer_1" xmlns="http://www.w3.org/2000/svg" xmlns:xlink="http://www.w3.org/1999/xlink" x="0px" y="0px"
	 viewBox="0 0 100 100" style="enable-background:new 0 0 100 100;" xml:space="preserve">
<style type="text/css">
	.st0{fill:#50509F;}
</style>
<g>
	<path class="st0" d="M55.2,43.1c1-1.2,1.6-1.9,2.2-2.6c7.2-8.7,25.6-8,31.6,4.4c1.9,4,2.8,8.1,2.9,12.5c0.1,10.3,0,20.5,0,30.8
		c0,1.3-0.3,1.8-1.7,1.8c-4.9-0.1-9.7-0.1-14.6,0c-1.5,0-1.8-0.5-1.8-1.9c0.1-8.9,0-17.8,0-26.7c0-1.9-0.1-3.8-0.6-5.7
		c-0.9-3.2-2.6-5.7-6.1-6.5c-3.6-0.8-6.7,0.1-9.2,2.7c-2,2.1-2.9,4.5-2.9,7.4c0.1,9.5,0,19,0.1,28.5c0,1.7-0.5,2.2-2.2,2.1
		c-4.6-0.1-9.3-0.1-14,0c-1.5,0-2-0.3-2-1.9c0.1-16.6,0.1-33.2,0-49.9c0-1.7,0.4-2.2,2.1-2.2c4.7,0.1,9.4,0.1,14.2,0
		c1.3,0,1.9,0.4,1.8,1.7C55.1,39.3,55.2,40.9,55.2,43.1z"/>
	<path class="st0" d="M27.3,63.1c0,8.3,0,16.5,0,24.8c0,1.5-0.3,2.2-2,2.1c-4.8-0.1-9.6-0.1-14.4,0c-1.4,0-1.7-0.4-1.7-1.8
		c0-16.8,0-33.6,0-50.5c0-1.4,0.5-1.7,1.8-1.7c4.8,0.1,9.6,0.1,14.4,0c1.6,0,1.9,0.5,1.9,2C27.3,46.4,27.3,54.7,27.3,63.1z"/>
	<path class="st0" d="M18.2,28.7c-5.8,0-10-3.9-10.1-9.3c0-5.3,4.4-9.4,10.3-9.4s10.2,4.1,10.1,9.5C28.4,24.9,24.1,28.7,18.2,28.7z"
		/>
</g>
</svg>
