<?xml version="1.0" encoding="utf-8"?>
<!-- Generator: Adobe Illustrator 23.0.3, SVG Export Plug-In . SVG Version: 6.00 Build 0)  -->
<svg version="1.1" id="Layer_1" xmlns="http://www.w3.org/2000/svg" xmlns:xlink="http://www.w3.org/1999/xlink" x="0px" y="0px"
	 viewBox="0 0 977.02 717.61" style="enable-background:new 0 0 977.02 717.61;" xml:space="preserve">
<style type="text/css">
	.st0{fill:#50509F;}
</style>
<g>
	<path class="st0" d="M963.72,201.62c0,33.75,0,66.18,0,98.61c0,111.15,0.06,222.3-0.05,333.45c-0.03,31.31-19.85,55.56-50.3,61.97
		c-4.31,0.91-8.84,1-13.27,1c-274.29,0.04-548.58,0.05-822.86,0.01c-37.04,0-63.88-26.54-63.91-63.49
		c-0.1-142.1-0.04-284.19-0.04-426.29c0-1.65,0-3.3,0-6.23c16.09,9.8,31.23,18.97,46.31,28.22
		c118.46,72.67,236.9,145.35,355.35,218.03c16.23,9.96,32.4,20.02,48.71,29.84c16.55,9.96,33.34,10,49.82-0.07
		C630.79,405,748.06,333.24,865.35,261.51c31.22-19.09,62.46-38.15,93.7-57.22C960.26,203.56,961.51,202.89,963.72,201.62z"/>
	<path class="st0" d="M489.11,20.94c136.88,0,273.76-0.06,410.64,0.04c36.99,0.03,63.64,26.86,64.11,63.59
		c0.06,5.12-1.59,7.82-5.93,10.47c-93.72,57.15-187.34,114.47-280.98,171.75c-60.73,37.15-121.51,74.24-182.14,111.55
		c-4.63,2.85-7.84,2.88-12.51,0C353.19,298.97,223.98,219.77,94.8,140.53c-25.5-15.64-50.9-31.45-76.48-46.96
		c-3.59-2.17-5.12-4.31-5.14-8.67c-0.19-35.83,27.08-63.89,63.07-63.92C213.86,20.87,351.49,20.94,489.11,20.94z"/>
</g>
</svg>
