<svg id="Group_19" data-name="Group 19" xmlns="http://www.w3.org/2000/svg" xmlns:xlink="http://www.w3.org/1999/xlink" width="167.262" height="31.304" viewBox="0 0 167.262 31.304">
  <defs>
    <style>
      .cls-1 {
        fill: #b6b9bd;
      }

      .cls-2 {
        clip-path: url(#clip-path);
      }
    </style>
    <clipPath id="clip-path">
      <rect id="Rectangle_18" data-name="Rectangle 18" class="cls-1" width="167.262" height="31.304"/>
    </clipPath>
  </defs>
  <g id="Group_19-2" data-name="Group 19" class="cls-2">
    <path id="Path_76" data-name="Path 76" class="cls-1" d="M0,17.253Q0,9.837,0,2.421C0,1.9,0,1.9.529,1.9c3.255,0,6.511-.014,9.766,0A19.588,19.588,0,0,1,17.182,3a12.035,12.035,0,0,1,7.873,9.27,22.223,22.223,0,0,1,.355,6.26,17.8,17.8,0,0,1-1.126,5.34A12.9,12.9,0,0,1,15.3,31.916a19.082,19.082,0,0,1-5.254.691q-4.781,0-9.563,0c-.486,0-.488,0-.488-.487q0-7.433,0-14.866M8.174,17.2c0,2.719,0,5.438-.006,8.157,0,.3.09.4.387.388.723-.021,1.448.017,2.169-.025a6.686,6.686,0,0,0,3.334-1A6.166,6.166,0,0,0,16.6,20.738a16.575,16.575,0,0,0,.366-5.07,11.324,11.324,0,0,0-.683-3.4,5.3,5.3,0,0,0-4.617-3.511c-1.014-.124-2.031-.041-3.046-.064-.446-.01-.448,0-.448.447q0,4.028,0,8.055" transform="translate(0 -1.766)"/>
    <path id="Path_77" data-name="Path 77" class="cls-1" d="M927.422,122.562a14.036,14.036,0,0,1,1.142-6.115,9.477,9.477,0,0,1,7.255-5.549,13.351,13.351,0,0,1,6.6.289,9.846,9.846,0,0,1,6.611,6.513,14.845,14.845,0,0,1,.7,5.9,13.893,13.893,0,0,1-1,4.637,9.489,9.489,0,0,1-7.181,5.835,13.467,13.467,0,0,1-6.6-.186,9.915,9.915,0,0,1-6.829-6.681,13.917,13.917,0,0,1-.692-4.645m14.406.16a16.643,16.643,0,0,0-.158-2.752,5.691,5.691,0,0,0-.755-2.227,2.653,2.653,0,0,0-2.593-1.135,2.5,2.5,0,0,0-2.162,1.3,5.06,5.06,0,0,0-.485,1.223,14.918,14.918,0,0,0-.318,4.637,8.657,8.657,0,0,0,.516,2.679,2.84,2.84,0,0,0,5.415.052,5.9,5.9,0,0,0,.183-.58,12.087,12.087,0,0,0,.356-3.2" transform="translate(-864.494 -103.115)"/>
    <path id="Path_78" data-name="Path 78" class="cls-1" d="M422.277,124.63h-6.408c-.457,0-.481.041-.418.481a4.012,4.012,0,0,0,3.917,3.47,14.615,14.615,0,0,0,6.8-1.036c.25-.1.354-.069.416.211q.51,2.294,1.054,4.58c.06.255-.031.362-.243.467a14.446,14.446,0,0,1-5.065,1.385,28.188,28.188,0,0,1-3.857.116,12.378,12.378,0,0,1-6.074-1.664,9.442,9.442,0,0,1-4.374-6.036,16.447,16.447,0,0,1,.348-9.4,9.154,9.154,0,0,1,7.4-6.351,14.531,14.531,0,0,1,6.348.146,8.605,8.605,0,0,1,6.734,6.916,14.585,14.585,0,0,1,.323,2.884c.026,1.117.009,2.234.009,3.352,0,.472-.005.478-.467.478h-6.442m-3.465-5.049h2.645c.653,0,.664,0,.572-.653A3.178,3.178,0,0,0,417,116.612a3.569,3.569,0,0,0-1.39,2.644c-.04.276.038.331.289.329.972-.009,1.944,0,2.916,0" transform="translate(-379.853 -103.071)"/>
    <path id="Path_79" data-name="Path 79" class="cls-1" d="M2002.843,124.567c-2.147,0-4.294,0-6.441-.005-.293,0-.409.043-.385.383a3.865,3.865,0,0,0,2.831,3.362,8.8,8.8,0,0,0,2.85.252,15.5,15.5,0,0,0,5.105-1.1c.2-.079.293-.026.339.175q.534,2.341,1.075,4.679c.059.251-.083.342-.267.433a13.844,13.844,0,0,1-4.294,1.292,25.98,25.98,0,0,1-4.7.2,12.229,12.229,0,0,1-6.089-1.727,9.655,9.655,0,0,1-4.337-6.219,17.244,17.244,0,0,1-.355-5.241,13.918,13.918,0,0,1,1.094-4.752,9.071,9.071,0,0,1,6.539-5.388,14.223,14.223,0,0,1,7.527.208,8.523,8.523,0,0,1,6.118,6.853,12.717,12.717,0,0,1,.281,2.786c-.011,1.117,0,2.234,0,3.352,0,.452,0,.455-.448.455h-6.442m-3.441-5.049h2.4c.944,0,.944,0,.755-.932a3.051,3.051,0,0,0-2.375-2.53,3.132,3.132,0,0,0-3.349,1.234,4.343,4.343,0,0,0-.652,1.831c-.053.292.023.407.339.4.959-.015,1.919-.005,2.878-.005" transform="translate(-1853.229 -103.008)"/>
    <path id="Path_80" data-name="Path 80" class="cls-1" d="M1724.839,29.456c0-1.467-.008-2.934.006-4.4,0-.319-.089-.44-.422-.428-.632.023-1.266,0-1.9.01-.256,0-.362-.073-.361-.345q.013-2.658,0-5.315c0-.251.1-.341.34-.338.644.007,1.289-.012,1.932.008.316.01.409-.107.407-.412-.01-1.659-.005-3.318,0-4.977,0-.514,0-.51.513-.593q3.441-.559,6.88-1.124c.461-.076.481-.066.481.4,0,2.088.008,4.176-.007,6.263,0,.342.1.446.442.442,1.344-.018,2.69,0,4.034-.013.319,0,.434.092.431.423q-.021,2.59,0,5.18c0,.317-.109.4-.412.4-1.367-.012-2.735,0-4.1-.011-.293,0-.393.081-.392.382.01,2.866.007,5.733.007,8.6a2.989,2.989,0,0,0,.07.671,1.662,1.662,0,0,0,1.6,1.357,8.825,8.825,0,0,0,3.2-.465c.151-.046.3-.1.451-.145.453-.151.454-.152.454.343q0,1.456,0,2.912c0,.711-.006,1.422,0,2.133a.385.385,0,0,1-.272.406,14.767,14.767,0,0,1-7.289,1.094,7.732,7.732,0,0,1-2.831-.744,5.579,5.579,0,0,1-2.879-3.861,14.793,14.793,0,0,1-.379-3.656c-.019-1.4,0-2.8,0-4.2" transform="translate(-1605.318 -10.725)"/>
    <path id="Path_81" data-name="Path 81" class="cls-1" d="M1461.99,30.047c0-1.67-.009-3.34.007-5.01,0-.334-.106-.425-.426-.414-.632.022-1.266,0-1.9.011-.285.007-.4-.072-.4-.379q.018-2.623,0-5.247c0-.281.1-.38.375-.375.621.012,1.243,0,1.864,0,.475,0,.475,0,.475-.49,0-1.636.009-3.272-.007-4.909,0-.312.1-.437.4-.488,2.346-.4,4.69-.813,7.035-1.22.381-.066.411-.04.411.342,0,2.11.008,4.22-.007,6.33,0,.342.095.446.44.442,1.344-.018,2.689,0,4.034-.013.32,0,.432.093.429.423q-.021,2.59,0,5.179c0,.315-.1.4-.409.4-1.367-.013-2.734,0-4.1-.011-.293,0-.391.08-.39.382.01,2.877,0,5.755.01,8.632a1.8,1.8,0,0,0,2.011,2.01,10.188,10.188,0,0,0,3.375-.645c.408-.137.425-.129.426.295,0,1.659-.005,3.318.006,4.976a.543.543,0,0,1-.385.582,14.829,14.829,0,0,1-6.895,1.093,7.087,7.087,0,0,1-3.944-1.265A5.967,5.967,0,0,1,1462.271,37a11.264,11.264,0,0,1-.282-2.514c.005-1.478,0-2.956,0-4.435" transform="translate(-1360.264 -10.721)"/>
    <path id="Path_82" data-name="Path 82" class="cls-1" d="M777.3,15.427q0,7.448,0,14.9c0,.516,0,.517-.52.517-2.272,0-4.543-.006-6.815.007-.337,0-.446-.09-.446-.437q.012-14.982,0-29.963c0-.343.105-.449.443-.447,2.294.011,4.588,0,6.883.006.448,0,.454.009.455.455q0,7.482,0,14.965" transform="translate(-717.312 -0.001)"/>
    <path id="Path_83" data-name="Path 83" class="cls-1" d="M1308.328,128.118q0,5.469,0,10.937c0,.53,0,.531-.515.531h-6.85c-.445,0-.45,0-.45-.458q0-11.005,0-22.01c0-.442.014-.456.458-.456q3.442,0,6.884,0c.449,0,.472.024.472.484q0,5.486,0,10.971" transform="translate(-1212.275 -108.746)"/>
    <path id="Path_84" data-name="Path 84" class="cls-1" d="M2338.523,339.29a4.39,4.39,0,0,1-4.42-4.438,4.441,4.441,0,0,1,4.429-4.449,4.507,4.507,0,0,1,4.468,4.476,4.458,4.458,0,0,1-4.477,4.412" transform="translate(-2175.738 -307.986)"/>
    <path id="Path_85" data-name="Path 85" class="cls-1" d="M1304.36,5.273c-1.175,0-2.351-.008-3.526.005-.3,0-.394-.1-.392-.391q.016-2.235,0-4.469c0-.278.1-.382.376-.382q3.543.007,7.087,0c.263,0,.359.11.358.366q-.008,2.252,0,4.5c0,.276-.1.374-.378.372-1.175-.011-2.351,0-3.526,0" transform="translate(-1212.209 -0.034)"/>
  </g>
</svg>
