<svg id="Group_10031" data-name="Group 10031" xmlns="http://www.w3.org/2000/svg" xmlns:xlink="http://www.w3.org/1999/xlink" width="230.695" height="43.094" viewBox="0 0 230.695 43.094">
  <defs>
    <clipPath id="clip-path">
      <rect id="Rectangle_17438" data-name="Rectangle 17438" width="230.695" height="43.094" fill="none"/>
    </clipPath>
  </defs>
  <g id="Group_9975" data-name="Group 9975" clip-path="url(#clip-path)">
    <path id="Path_6640" data-name="Path 6640" d="M.011,23Q.011,12.7,0,2.405c0-.434.116-.532.538-.531,5.02.022,10.042-.02,15.061.044A22.273,22.273,0,0,1,25.89,4.362,16.291,16.291,0,0,1,34.22,15.016a28.792,28.792,0,0,1,.8,9.2A25.542,25.542,0,0,1,33.6,31.6c-2.389,6.53-7.1,10.373-13.828,11.882a29.64,29.64,0,0,1-6.538.651q-6.361,0-12.723.009c-.4,0-.516-.079-.515-.5Q.023,33.32.011,23M11.2,22.927c0,3.8,0,7.6-.007,11.395,0,.332.052.47.426.448.606-.035,1.216,0,1.824-.011a12.51,12.51,0,0,0,4.58-.74,7.921,7.921,0,0,0,4.7-5.5,22.319,22.319,0,0,0,.7-7.76,16.015,16.015,0,0,0-.7-3.978,7.452,7.452,0,0,0-6.644-5.56c-1.476-.181-2.959-.048-4.438-.106-.382-.015-.45.112-.449.463.012,3.783.008,7.566.008,11.348" transform="translate(0 -1.699)" fill="#fff"/>
    <path id="Path_6641" data-name="Path 6641" d="M958.055,126.352a19.851,19.851,0,0,1-1.844,8.967,13.049,13.049,0,0,1-9.567,7.163,18.933,18.933,0,0,1-8.566-.165,13.506,13.506,0,0,1-9.558-8.585,20.714,20.714,0,0,1-1.158-9.169,17.659,17.659,0,0,1,1.566-6.474,12.817,12.817,0,0,1,8.93-7.275,18.176,18.176,0,0,1,10.885.445,13.677,13.677,0,0,1,8.587,9.631,20.736,20.736,0,0,1,.725,5.462m-19.945.017a16.193,16.193,0,0,0,.783,5.667,3.9,3.9,0,0,0,4.854,2.632,3.7,3.7,0,0,0,2.736-2.717,14.75,14.75,0,0,0,.7-4.353,17.754,17.754,0,0,0-.708-6.5,3.643,3.643,0,0,0-2.041-2.416c-1.832-.727-4.545-.522-5.561,2.333a16.274,16.274,0,0,0-.764,5.349" transform="translate(-840.469 -99.876)" fill="#fff"/>
    <path id="Path_6642" data-name="Path 6642" d="M428.183,129.6c-3.025,0-6.05.007-9.075-.009-.357,0-.427.084-.409.434a5.393,5.393,0,0,0,3.974,4.824,12.2,12.2,0,0,0,4.121.339,20.614,20.614,0,0,0,6.883-1.523c.255-.106.331-.046.391.221q.722,3.2,1.48,6.388c.077.323-.022.461-.3.6a19.9,19.9,0,0,1-7.155,1.918,35.369,35.369,0,0,1-6.21.078c-4.108-.371-7.753-1.736-10.509-4.962a13.874,13.874,0,0,1-3.1-6.877,23.565,23.565,0,0,1,.62-11.159,12.681,12.681,0,0,1,10.554-9.219,19.763,19.763,0,0,1,9.333.459,11.744,11.744,0,0,1,8.459,9.337,20.8,20.8,0,0,1,.425,4.355c.012,1.463-.006,2.927.01,4.39,0,.326-.089.416-.417.415-3.025-.013-6.05-.007-9.075-.007m-4.74-6.881c1.386,0,2.772-.013,4.157.009.351.006.432-.118.38-.423-.065-.382-.1-.77-.192-1.146a4.244,4.244,0,0,0-3.779-3.4A4.355,4.355,0,0,0,419.591,120a7.746,7.746,0,0,0-.672,2.309c-.058.335.028.422.367.417,1.386-.018,2.771-.008,4.157-.008" transform="translate(-369.697 -99.98)" fill="#fff"/>
    <path id="Path_6643" data-name="Path 6643" d="M2007.856,129.538c-3.01,0-6.019.006-9.028-.008-.352,0-.422.064-.388.431a5.561,5.561,0,0,0,5.39,5.1,19.967,19.967,0,0,0,9.414-1.4c.388-.155.518-.126.615.328.448,2.092.937,4.174,1.434,6.255.069.29,0,.4-.251.526a19.537,19.537,0,0,1-7.191,1.951,35.343,35.343,0,0,1-6.21.081,15.054,15.054,0,0,1-10.112-4.494,13.439,13.439,0,0,1-3.376-6.69,22.992,22.992,0,0,1,.707-12.456,12.549,12.549,0,0,1,10.22-8.563,19.577,19.577,0,0,1,9.736.535,11.676,11.676,0,0,1,8.11,9,19.048,19.048,0,0,1,.477,4.486c-.007,1.494-.013,2.989.007,4.483,0,.346-.078.438-.433.436-3.041-.016-6.081-.009-9.122-.009m-4.683-6.881h3.742c.828,0,.828,0,.757-.817a4.412,4.412,0,0,0-5.72-3.984c-2.116.583-3.041,2.3-3.281,4.447-.033.3.051.363.339.36,1.387-.015,2.775-.007,4.163-.007" transform="translate(-1801.525 -99.915)" fill="#fff"/>
    <path id="Path_6644" data-name="Path 6644" d="M1481.594,43.464v.366q0,3.55,0,7.1c0,.241,0,.42-.291.544a20.527,20.527,0,0,1-9.949,1.539,10.515,10.515,0,0,1-4.367-1.205,7.727,7.727,0,0,1-3.649-5.23,15.986,15.986,0,0,1-.472-3.925q-.008-6.516,0-13.033c0-.357-.077-.47-.451-.458-.966.029-1.934,0-2.9.016-.288,0-.4-.048-.4-.374q.022-3.714,0-7.427c0-.333.122-.38.406-.376.951.014,1.9-.014,2.854.015.377.011.5-.07.495-.474-.021-2.382-.006-4.765-.016-7.147,0-.3.029-.44.4-.5,3.312-.557,6.618-1.146,9.924-1.733.317-.056.43,0,.428.358-.014,3.005,0,6.01-.017,9.015,0,.391.106.487.491.483,1.965-.02,3.93,0,5.9-.016.292,0,.4.056.393.376q-.022,3.713,0,7.427c0,.318-.1.377-.392.376-1.965-.012-3.93,0-5.9-.015-.367,0-.5.055-.494.466.019,3.862.01,7.723.013,11.585a5.986,5.986,0,0,0,.056,1.07,2.5,2.5,0,0,0,2.866,2.2,14.973,14.973,0,0,0,4.51-.9.924.924,0,0,1,.56-.12" transform="translate(-1322.509 -10.097)" fill="#fff"/>
    <path id="Path_6645" data-name="Path 6645" d="M1744.411,43.4c0,2.6,0,5.156,0,7.709,0,.192-.081.263-.245.333a19.08,19.08,0,0,1-6.3,1.568,20.414,20.414,0,0,1-5.445-.239c-3.607-.737-5.6-3.04-6.356-6.543a19.911,19.911,0,0,1-.39-4.264c.009-4.095-.005-8.19.015-12.285,0-.447-.136-.529-.541-.517-.95.028-1.9,0-2.854.017-.3.007-.358-.086-.357-.366q.017-3.713,0-7.427c0-.3.075-.4.385-.389.982.02,1.965-.006,2.948.015.326.007.416-.084.414-.413-.014-2.444,0-4.889-.016-7.333,0-.323.073-.447.407-.5,2.581-.4,5.159-.828,7.739-1.248.706-.115,1.413-.225,2.115-.356.347-.065.477,0,.475.4-.019,2.989,0,5.979-.02,8.968,0,.393.107.489.492.485,1.965-.02,3.93,0,5.9-.016.322,0,.418.077.416.409q-.022,3.69,0,7.38c0,.353-.126.393-.428.391-1.981-.012-3.961,0-5.942-.016-.358,0-.435.1-.433.439.012,3.877.006,7.754.011,11.631a6.126,6.126,0,0,0,.076,1.116,2.486,2.486,0,0,0,2.83,2.132,14.634,14.634,0,0,0,4.51-.89c.175-.06.352-.115.589-.191" transform="translate(-1560.727 -10.102)" fill="#fff"/>
    <path id="Path_6646" data-name="Path 6646" d="M769.414,21.229q0-10.366-.012-20.732c0-.428.121-.5.515-.5q4.864.025,9.728,0c.351,0,.432.085.432.433q-.015,20.779,0,41.557c0,.378-.109.451-.463.449q-4.864-.02-9.728,0c-.388,0-.484-.091-.483-.481q.02-10.366.01-20.732" transform="translate(-697.367 0)" fill="#fff"/>
    <path id="Path_6647" data-name="Path 6647" d="M1311.13,132.2q0,7.636.01,15.271c0,.392-.1.48-.483.478q-4.841-.026-9.683,0c-.366,0-.5-.054-.5-.467q.019-15.295,0-30.589c0-.389.106-.487.49-.485q4.818.023,9.636,0c.412,0,.542.082.541.523-.018,5.09-.011,10.181-.011,15.271" transform="translate(-1178.714 -105.51)" fill="#fff"/>
    <path id="Path_6648" data-name="Path 6648" d="M2345.818,335.962a6.1,6.1,0,1,1-6.076-6.162,6.084,6.084,0,0,1,6.076,6.162" transform="translate(-2115.124 -298.922)" fill="#83b02c"/>
    <path id="Path_6649" data-name="Path 6649" d="M1305.8,7.118c-1.636,0-3.273-.008-4.91.007-.305,0-.4-.076-.393-.385q.019-3.174,0-6.348c0-.3.078-.39.389-.389q4.956.018,9.912,0c.29,0,.361.074.36.361q-.019,3.2,0,6.4c0,.337-.129.366-.4.364-1.652-.01-3.3,0-4.956,0" transform="translate(-1178.74 -0.002)" fill="#fff"/>
  </g>
</svg>
