<svg id="Group_21" data-name="Group 21" xmlns="http://www.w3.org/2000/svg" xmlns:xlink="http://www.w3.org/1999/xlink" width="92.547" height="87.12" viewBox="0 0 92.547 87.12">
  <defs>
    <style>
      .cls-1 {
        fill: #b6b9bd;
      }

      .cls-2 {
        clip-path: url(#clip-path);
      }
    </style>
    <clipPath id="clip-path">
      <rect id="Rectangle_21" data-name="Rectangle 21" class="cls-1" width="92.547" height="87.12"/>
    </clipPath>
  </defs>
  <g id="Group_24" data-name="Group 24" class="cls-2">
    <path id="Path_98" data-name="Path 98" class="cls-1" d="M210.616,27.749c0,1.788.032,3.577-.007,5.365q-.112,5.113-.293,10.224c-.1,2.817-.249,5.632-.376,8.448-.011.234-.005.479-.293.557a.632.632,0,0,1-.736-.267,21.288,21.288,0,0,1-1.546-2.337c-.459-.933-1.1-1.746-1.618-2.64-1.508-2.612-3-5.232-4.56-7.813-.9-1.486-1.758-2.993-2.619-4.5-.96-1.677-1.849-3.4-2.783-5.087a34.321,34.321,0,0,1-2.152-4.523c-1.494-3.991-2.789-8.046-2.513-12.387a12.327,12.327,0,0,1,3.7-8.387A15.3,15.3,0,0,1,201.885.531,11.279,11.279,0,0,1,205.03.068a.689.689,0,0,1,.71.472c.508,1.209.949,2.44,1.369,3.684.683,2.021,1.249,4.076,1.783,6.134a45.334,45.334,0,0,1,1.672,10.653c.038,2.246,0,4.493.053,6.739" transform="translate(-165.971 -0.057)"/>
    <path id="Path_99" data-name="Path 99" class="cls-1" d="M383.658,14.01a22.167,22.167,0,0,1-.725,5.456,34.275,34.275,0,0,1-1.917,5.825,50.6,50.6,0,0,1-2.787,5.8c-.858,1.566-1.762,3.106-2.651,4.655-1.361,2.373-2.71,4.753-4.095,7.112-1.028,1.751-2.139,3.454-3.147,5.217-.7,1.225-1.538,2.362-2.2,3.61a1.934,1.934,0,0,1-.131.208c-.194.275-.415.554-.792.467-.424-.1-.369-.48-.386-.805-.146-2.7-.212-5.4-.342-8.1-.15-3.111-.213-6.224-.3-9.336-.106-3.981-.1-7.966-.038-11.95a50.379,50.379,0,0,1,.616-7.093c.423-2.665,1.234-5.232,1.907-7.831.418-1.613,1.057-3.168,1.58-4.755.22-.669.43-1.339.71-1.988A.708.708,0,0,1,369.763,0a16.661,16.661,0,0,1,5.71,1.33,15.243,15.243,0,0,1,4.26,2.864,12.089,12.089,0,0,1,3.83,7.762,17.806,17.806,0,0,1,.095,2.05" transform="translate(-316.26 0)"/>
    <path id="Path_100" data-name="Path 100" class="cls-1" d="M433.575,113.493a11.673,11.673,0,0,1-1.62,6.779,17.178,17.178,0,0,1-2.341,3.018,31.9,31.9,0,0,1-4.132,3.554c-1.56,1.13-3.143,2.235-4.753,3.3-1.45.96-2.95,1.834-4.4,2.785-1.357.887-2.77,1.689-4.161,2.524-1.068.641-2.128,1.3-3.213,1.91-2.567,1.451-5.172,2.833-7.844,4.084-.254.119-.573.358-.821.13s-.029-.56.081-.82c.584-1.372,1.219-2.72,1.914-4.041.93-1.768,1.808-3.564,2.793-5.3.9-1.6,1.8-3.2,2.7-4.8,1.011-1.78,2.012-3.566,3.055-5.328s2.1-3.553,3.239-5.276c1.046-1.587,2.082-3.183,3.128-4.77,1.642-2.49,3.343-4.938,5.142-7.314a25.162,25.162,0,0,1,3.164-3.75c.48-.428.648-.462,1.135-.054A19.364,19.364,0,0,1,430,103.935a24.293,24.293,0,0,1,2.91,5.508,9.481,9.481,0,0,1,.67,4.05" transform="translate(-347.583 -86.718)"/>
    <path id="Path_101" data-name="Path 101" class="cls-1" d="M57.1,100a1.575,1.575,0,0,1,.76.555c2.014,2.378,3.853,4.89,5.642,7.439.913,1.3,1.868,2.575,2.739,3.9.962,1.465,1.916,2.936,2.848,4.421,1.682,2.681,3.26,5.423,4.9,8.13.923,1.526,1.777,3.1,2.63,4.666,1.087,2,2.159,4.009,3.255,6a50.75,50.75,0,0,1,2.719,5.608c.117.292.4.651.168.911s-.627-.015-.909-.125a29.534,29.534,0,0,1-3.636-1.737c-2.307-1.281-4.637-2.526-6.892-3.894-1.343-.815-2.712-1.59-4.039-2.434s-2.642-1.708-3.97-2.551c-1.979-1.257-3.869-2.641-5.786-3.988a32.351,32.351,0,0,1-3.846-3.2,12.473,12.473,0,0,1-2.187-2.647,13.947,13.947,0,0,1-1.87-4.772,15.488,15.488,0,0,1,2.332-10.554,33.317,33.317,0,0,1,3.295-4.395,10.236,10.236,0,0,1,1.408-1.216A.578.578,0,0,1,57.1,100" transform="translate(-42.942 -86.855)"/>
    <path id="Path_102" data-name="Path 102" class="cls-1" d="M454.664,284.614a16.909,16.909,0,0,1-1.748,8.2,13.341,13.341,0,0,1-5.261,5.7c-.437.257-.835.592-1.291.8a24.209,24.209,0,0,1-5.29,1.955,25.834,25.834,0,0,1-4.249.4c-4.214.155-8.428.077-12.641.061-2.244-.009-4.488-.136-6.731-.214-.192-.007-.447.01-.5-.218-.049-.207.2-.281.339-.373.809-.527,1.632-1.033,2.442-1.558,3.435-2.228,6.873-4.454,10.393-6.544,2.462-1.462,4.918-2.937,7.446-4.289q4.939-2.639,9.814-5.4c1.625-.918,3.247-1.84,4.9-2.713.39-.207.8-.371,1.2-.565.311-.151.486-.052.6.265a10.345,10.345,0,0,1,.452,2.011,9.925,9.925,0,0,1,.132,2.481" transform="translate(-362.154 -243.019)"/>
    <path id="Path_103" data-name="Path 103" class="cls-1" d="M32.562,301.189c-5,.124-9.284.091-13.563.054A24.882,24.882,0,0,1,14.832,301a20.952,20.952,0,0,1-5.706-1.78,17.361,17.361,0,0,1-4.488-3.063,12.445,12.445,0,0,1-2.825-3.8A15.726,15.726,0,0,1,.629,289.4a20.817,20.817,0,0,1-.543-6.683,15.055,15.055,0,0,1,.357-2.821c.225-.742.329-.809,1.019-.435,1.412.764,2.814,1.547,4.223,2.317,1.855,1.013,3.742,1.971,5.559,3.047q2.158,1.277,4.375,2.437c1.592.839,3.186,1.675,4.738,2.585,1.808,1.06,3.585,2.174,5.377,3.261,1.429.867,2.89,1.686,4.284,2.606s2.8,1.756,4.186,2.666c1.066.7,2.117,1.426,3.173,2.144.109.074.311.133.256.313-.043.142-.22.111-.347.123-1.812.174-3.634.166-4.724.234" transform="translate(0 -242.539)"/>
    <path id="Path_104" data-name="Path 104" class="cls-1" d="M68.279,462.479c2.866-.1,5.732-.222,8.6-.3,3.195-.091,6.392-.119,9.586-.231,2.114-.074,4.226-.167,6.341-.181.326,0,.652-.057.979-.079.094-.006.213-.012.257.1s-.068.162-.14.223c-1.694,1.423-3.441,2.778-5.188,4.133a29.072,29.072,0,0,1-4.84,2.992,21.05,21.05,0,0,1-4.806,1.978,9.742,9.742,0,0,1-5.1.142,11.549,11.549,0,0,1-3.364-1.9,13.028,13.028,0,0,1-2.181-2.055,21.184,21.184,0,0,1-2.967-4.383c-.158-.328.017-.343.27-.372a18.919,18.919,0,0,1,2.556-.057" transform="translate(-56.799 -401.008)"/>
    <path id="Path_105" data-name="Path 105" class="cls-1" d="M438.9,471.645a12.042,12.042,0,0,1-3.929-.8,27.752,27.752,0,0,1-6.91-3.488c-2.067-1.344-3.841-3.057-5.826-4.5-.278-.2-.567-.389-.846-.59-.108-.078-.217-.186-.172-.326.052-.161.215-.115.341-.111,2.766.085,5.532.19,8.3.251,1.687.037,3.374.1,5.062.128,2.751.037,5.5.2,8.253.261,1.819.039,3.636.107,5.453.181.26.011.523-.045.784-.045.377,0,.515.156.312.523a20.83,20.83,0,0,1-1.429,2.349,19.449,19.449,0,0,1-3.468,3.8,16.392,16.392,0,0,1-2.178,1.507,8.592,8.592,0,0,1-3.746.861" transform="translate(-365.851 -401.13)"/>
    <path id="Path_106" data-name="Path 106" class="cls-1" d="M374.181,570.473c-.731,2.2-1.45,4.358-2.162,6.517-.216.654-.419,1.312-.618,1.971a.641.641,0,0,1-.716.533,24.872,24.872,0,0,0-2.5-.092c-.333.005-.386-.25-.456-.486q-.817-2.731-1.632-5.464-.857-2.872-1.713-5.745c-.181-.6-.154-.644.48-.64.656,0,1.315.044,1.967,0a.688.688,0,0,1,.807.652,23.1,23.1,0,0,0,.63,2.476c.5,1.545.853,3.13,1.267,4.7.029.108.076.211.12.331.2-.12.193-.318.248-.476.816-2.353,1.5-4.749,2.341-7.094a.745.745,0,0,1,.853-.594c.8.036,1.608.042,2.41.01a.7.7,0,0,1,.8.6c.751,2.495,1.523,4.983,2.289,7.473.027.089.01.2.168.264.324-1.185.64-2.367.97-3.545.389-1.388.693-2.8,1.123-4.176.132-.424.3-.635.779-.613.7.033,1.41.01,2.115,0,.341-.007.45.135.347.451-.132.405-.277.806-.4,1.214q-1.5,4.993-2.986,9.987c-.227.758-.259.748-1.034.708-.671-.035-1.345-.029-2.017-.012a.567.567,0,0,1-.636-.464q-1.361-4.184-2.748-8.359c-.009-.028-.038-.05-.092-.117" transform="translate(-316.411 -492.536)"/>
    <path id="Path_107" data-name="Path 107" class="cls-1" d="M161.477,571.278c0-1.2.008-2.395,0-3.592,0-.408.129-.595.569-.586.951.02,1.9.01,2.854-.009.383-.008.533.144.525.521-.058,2.737.079,5.477-.112,8.213a2.131,2.131,0,0,1-1.024,1.852c-.747.437-1.3,1.179-2.147,1.452a11.723,11.723,0,0,1-5.481.4,6.628,6.628,0,0,1-1.879-.562,4.051,4.051,0,0,1-2.275-3.794c-.04-.832-.066-1.663-.028-2.5.05-1.077-.051-2.161-.057-3.242,0-.638.06-1.276.076-1.914.008-.331.188-.414.476-.413.689,0,1.378.01,2.066-.016.429-.016.573.153.569.577-.017,1.853-.005,3.707-.012,5.561a21.063,21.063,0,0,0,.082,2.21,2.153,2.153,0,0,0,1.035,1.6c.925.625,3.387.582,4.19-.295a1.722,1.722,0,0,0,.492-1.037c.057-.734.057-1.472.066-2.209s0-1.476,0-2.214h.016" transform="translate(-132.386 -492.565)"/>
    <path id="Path_108" data-name="Path 108" class="cls-1" d="M35.336,573.281q0-2.706,0-5.412c0-.774,0-.773.8-.776.558,0,1.116.013,1.673-.017.459-.025.644.124.633.611-.028,1.229.005,2.46-.017,3.69-.007.414.138.536.54.531q2.386-.026,4.773,0c.431.005.551-.143.573-.566a29.887,29.887,0,0,0,0-3.585c-.043-.631.032-.672.651-.668.689.005,1.378.011,2.067,0,.329,0,.471.12.47.463q-.013,5.708-.006,11.416a.439.439,0,0,1-.466.5,10.714,10.714,0,0,1-2.207-.021c-.359-.046-.431-.226-.454-.556a33.771,33.771,0,0,1,.014-4.273c.025-.457-.138-.6-.589-.591a40.49,40.49,0,0,1-4.766,0c-.489-.043-.612.164-.6.623.024,1.394,0,2.789.016,4.182.006.416-.125.568-.555.6a15.986,15.986,0,0,1-2.06.048c-.394-.025-.5-.185-.5-.546.009-1.886,0-3.772,0-5.659h.013" transform="translate(-30.677 -492.551)"/>
    <path id="Path_109" data-name="Path 109" class="cls-1" d="M262.887,567.13c.18,0,.361,0,.541,0,1.164-.01,1.144.014,1.64,1.061.9,1.894,1.865,3.755,2.756,5.653.822,1.75,1.8,3.423,2.551,5.207.129.307.076.419-.257.422a16.876,16.876,0,0,0-2.4.08.625.625,0,0,1-.7-.42c-.316-.7-.65-1.4-.958-2.1a.5.5,0,0,0-.6-.349c-1.26.111-2.521-.068-3.782-.036-.409.01-.82.074-1.225.045-.492-.035-.685.218-.848.629-.241.608-.548,1.189-.824,1.783a.551.551,0,0,1-.42.368,9.9,9.9,0,0,1-2.451.058c-.522-.04-.566-.149-.34-.625q1.235-2.6,2.484-5.185c.991-2.05,2-4.09,2.981-6.145a.662.662,0,0,1,.723-.436c.376.02.754,0,1.131,0,0,0,0-.007,0-.011m-.052,3.128c-.709,1.337-1.251,2.615-1.779,3.9-.082.2-.09.357.2.358l3.241.011c.232,0,.3-.117.2-.315-.6-1.285-1.209-2.568-1.861-3.954" transform="translate(-221.87 -492.599)"/>
    <path id="Path_110" data-name="Path 110" class="cls-1" d="M538.077,575.374c-1.231,0-2.461.013-3.692-.007-.431-.007-.5.137-.389.528a6.775,6.775,0,0,0,.53,1.267,2.045,2.045,0,0,0,1.967,1.144c1.772-.022,3.544,0,5.316-.023.437,0,.589.171.564.586a9.956,9.956,0,0,0-.015,1.131c.023.439-.184.569-.591.565q-2.141-.019-4.282,0c-.392,0-.787.1-1.174.071a5.951,5.951,0,0,1-5.611-5.166,6.092,6.092,0,0,1,2.612-6.1,4.885,4.885,0,0,1,2.795-.825c1.9-.049,3.806-.017,5.71-.037.4,0,.575.138.556.542s-.028.788-.014,1.181-.156.513-.531.511c-1.821-.008-3.644.053-5.463-.012-1.219-.044-2.126,1.347-2.251,2.179-.041.275.149.245.308.245.689,0,1.378,0,2.067,0,1.772,0,3.544.005,5.316-.015.436-.005.593.162.568.578-.022.376-.026.755-.017,1.132s-.164.519-.538.515c-1.247-.012-2.494,0-3.741,0v.012" transform="translate(-460.892 -493.799)"/>
    <path id="Path_111" data-name="Path 111" class="cls-1" d="M645.051,573.252c0-1.852.011-3.7-.008-5.554,0-.442.126-.622.584-.6.654.026,1.311.018,1.966-.01.439-.019.57.171.566.583-.014,1.393,0,2.785-.005,4.178q-.005,3.465-.015,6.93c0,.609-.044.643-.634.657a12.285,12.285,0,0,0-1.863.072c-.446.078-.6-.159-.6-.6.014-1.884.006-3.768.006-5.653Z" transform="translate(-560.271 -492.56)"/>
  </g>
</svg>
