<svg id="Group_20" data-name="Group 20" xmlns="http://www.w3.org/2000/svg" xmlns:xlink="http://www.w3.org/1999/xlink" width="188.771" height="69.759" viewBox="0 0 188.771 69.759">
  <defs>
    <style>
      .cls-1 {
        fill: #b6b9bd;
      }

      .cls-2 {
        clip-path: url(#clip-path);
      }
    </style>
    <clipPath id="clip-path">
      <rect id="Rectangle_20" data-name="Rectangle 20" class="cls-1" width="188.771" height="69.758"/>
    </clipPath>
  </defs>
  <path id="Path_86" data-name="Path 86" class="cls-1" d="M293.978,234.479l-.881,3.189h1.681Z" transform="translate(-255.704 -204.565)"/>
  <g id="Group_22" data-name="Group 22">
    <g id="Group_21" data-name="Group 21" class="cls-2">
      <path id="Path_87" data-name="Path 87" class="cls-1" d="M404.772,329.766c0-1.435-.961-2.232-2.562-2.232h-2.322V332h2.322c1.6,0,2.562-.8,2.562-2.232" transform="translate(-348.871 -285.748)"/>
      <path id="Path_88" data-name="Path 88" class="cls-1" d="M230.448,233.012a1.073,1.073,0,0,0-1.041-1.116h-1.041v2.312h.961a1.214,1.214,0,0,0,1.121-1.2" transform="translate(-199.232 -202.311)"/>
      <path id="Path_89" data-name="Path 89" class="cls-1" d="M0,69.758H70.058V0H0ZM53.529,27.682h6.565v2.073H58.013v5.979h-2.4V29.755H53.529Zm-16.537,0h2.642l2.722,8.052H39.794l-.24-.877H36.992l-.24.957H34.19Zm-22.218,0h3.043l1.761,5.262,1.681-5.262h2.962v8.052H21.981v-5.1l-1.521,5.1H18.7l-1.6-5.182v5.182H14.775Zm-4.878,0h2.4v8.052H9.9ZM24.628,56.933H20.385V49.758H14.14v7.175H9.9v-18.1H14.14v7.335h6.245V38.836h4.243Zm2.1-29.262h3.923a2.934,2.934,0,0,1,2.962,2.87V30.7a2.933,2.933,0,0,1-2.8,3.03H29.134V35.8h-2.4Zm16.26,23.123c0,4.225-2.882,6.617-7.366,6.617S28.34,55.02,28.34,50.795V38.836H32.5v11.72a2.942,2.942,0,0,0,3.123,3.269,2.942,2.942,0,0,0,3.123-3.269V38.836h4.243Zm.295-18.656v-.4a4.194,4.194,0,0,1,4.083-4.305h.4c2.562,0,4.163,1.2,4.4,3.348H49.612a1.612,1.612,0,0,0-1.841-1.2,1.891,1.891,0,0,0-2,1.834v.319a2.014,2.014,0,0,0,1.681,2.152h.32a1.739,1.739,0,0,0,1.841-1.2h2.562c-.16,2.152-1.841,3.348-4.4,3.348a4.206,4.206,0,0,1-4.484-3.907m17.1,19.772c0,3.109-2.242,5.023-5.845,5.023H46.773v-18.1h7.446c3.6,0,5.845,1.754,5.845,4.7a3.885,3.885,0,0,1-3.443,4.146,4.12,4.12,0,0,1,3.763,4.225"/>
      <path id="Path_90" data-name="Path 90" class="cls-1" d="M402.529,385.025h-2.642v4.624h2.642a2.156,2.156,0,0,0,2.482-1.993v-.4a2.252,2.252,0,0,0-2.482-2.232" transform="translate(-348.871 -335.905)"/>
      <path id="Path_91" data-name="Path 91" class="cls-1" d="M618.052,318.623a2.107,2.107,0,0,0,.641-1.754,2,2,0,0,0-.721-1.594,3.032,3.032,0,0,0-1.842-.638h-2.482v4.624h2.643a2.128,2.128,0,0,0,1.761-.638m-4.4-11.241v4.385h2.322a2.965,2.965,0,0,0,1.842-.558,2.256,2.256,0,0,0,.08-3.189,2.94,2.94,0,0,0-1.922-.638Zm8.247,7.1a4.065,4.065,0,0,1,1.041,2.95,4.539,4.539,0,0,1-1.521,3.667,6.3,6.3,0,0,1-4.243,1.355h-7.767v-18.1h7.446a6.68,6.68,0,0,1,4.244,1.276,4.381,4.381,0,0,1,1.6,3.428,3.966,3.966,0,0,1-.961,2.79,4.475,4.475,0,0,1-2.562,1.355,4,4,0,0,1,2.723,1.276" transform="translate(-531.659 -265.516)"/>
      <path id="Path_92" data-name="Path 92" class="cls-1" d="M738.6,350.947a2.849,2.849,0,0,0-.721-1.913,2.464,2.464,0,0,0-1.921-.638,3.084,3.084,0,0,0-2,.717,2.74,2.74,0,0,0-.8,1.834Zm3.843,2.392h-9.287a2.777,2.777,0,0,0,.8,1.913,2.831,2.831,0,0,0,2.082.638c1.2,0,2-.4,2.322-1.2h3.923a3.654,3.654,0,0,1-1.041,2.153A6.009,6.009,0,0,1,739,358.281a7.7,7.7,0,0,1-2.963.478,7.233,7.233,0,0,1-5.044-1.754,6.172,6.172,0,0,1-1.761-4.7,7.753,7.753,0,0,1,.8-3.508,6.086,6.086,0,0,1,2.4-2.312,7.842,7.842,0,0,1,3.523-.8,8.6,8.6,0,0,1,3.443.717,5.833,5.833,0,0,1,2.322,2.073,5.328,5.328,0,0,1,.8,3.109,12.3,12.3,0,0,1-.08,1.754" transform="translate(-636.193 -301.583)"/>
      <rect id="Rectangle_19" data-name="Rectangle 19" class="cls-1" width="4.004" height="18.097" transform="translate(108.85 38.836)"/>
      <path id="Path_93" data-name="Path 93" class="cls-1" d="M913.927,355.306a3.6,3.6,0,0,0,0-4.624,2.958,2.958,0,0,0-4.243-.08l-.08.08a3.71,3.71,0,0,0,0,4.7,3.129,3.129,0,0,0,4.323-.08m4.644-8.53v11.64a7.343,7.343,0,0,1-.64,3.189,5.821,5.821,0,0,1-1.762,2.152,9.878,9.878,0,0,1-8.967.08,4.851,4.851,0,0,1-1.6-1.515,3.428,3.428,0,0,1-.641-1.913h4.084a2.01,2.01,0,0,0,.8,1.2,2.987,2.987,0,0,0,1.841.4,2.57,2.57,0,0,0,2.962-2.152,2.665,2.665,0,0,0,0-.8v-1.674a2.837,2.837,0,0,1-1.6,1.435,4.756,4.756,0,0,1-2.322.558,5.879,5.879,0,0,1-3.122-.8,6.186,6.186,0,0,1-2.082-2.232,7.911,7.911,0,0,1-.8-3.428,7.509,7.509,0,0,1,.721-3.269,5.6,5.6,0,0,1,5.284-3.109,4.754,4.754,0,0,1,2.322.558,3.482,3.482,0,0,1,1.521,1.515v-1.834Z" transform="translate(-789.297 -302.323)"/>
      <path id="Path_94" data-name="Path 94" class="cls-1" d="M1040.574,347.188h4v2.631a3.541,3.541,0,0,1,1.281-2.073,3.03,3.03,0,0,1,2.162-.8,4.582,4.582,0,0,1,1.041.08V350.7a6.083,6.083,0,0,0-1.2-.08,2.817,2.817,0,0,0-2.4,1.036,4.259,4.259,0,0,0-.881,3.189v4.783h-4Z" transform="translate(-907.82 -302.686)"/>
      <path id="Path_95" data-name="Path 95" class="cls-1" d="M1127.688,354.866a3.6,3.6,0,0,0,.8-2.392,3.4,3.4,0,0,0-.8-2.312,2.912,2.912,0,0,0-2.242-.957,3.1,3.1,0,0,0-2.161.877,3.228,3.228,0,0,0-.8,2.392,3.75,3.75,0,0,0,.8,2.392,2.542,2.542,0,0,0,2.161.877,2.7,2.7,0,0,0,2.242-.877m-6.565,3.348a5.115,5.115,0,0,1-2-2.312,8.5,8.5,0,0,1-.721-3.428,8.126,8.126,0,0,1,.721-3.348,6.654,6.654,0,0,1,2.082-2.392,6.074,6.074,0,0,1,3.122-.8,5.288,5.288,0,0,1,2.4.558,3.481,3.481,0,0,1,1.521,1.515v-1.754h3.923v12.437h-3.923v-1.754a4.153,4.153,0,0,1-1.6,1.515,4.853,4.853,0,0,1-2.4.558,5.546,5.546,0,0,1-3.122-.8" transform="translate(-975.718 -301.803)"/>
      <path id="Path_96" data-name="Path 96" class="cls-1" d="M1256.526,318.6a3.607,3.607,0,0,0,.8-2.392,3.4,3.4,0,0,0-.8-2.312,2.914,2.914,0,0,0-2.242-.957,3.1,3.1,0,0,0-2.162.877,3.709,3.709,0,0,0,0,4.7,2.959,2.959,0,0,0,2.242,1.036,2.519,2.519,0,0,0,2.162-.957m4.644-7.813v11.719h-3.923v-1.754a4.158,4.158,0,0,1-1.6,1.515,4.851,4.851,0,0,1-2.4.558,5.291,5.291,0,0,1-3.123-.877,5.11,5.11,0,0,1-2-2.312,7.114,7.114,0,0,1-.8-3.348,7.87,7.87,0,0,1,.721-3.348,6.655,6.655,0,0,1,2.082-2.392,6.15,6.15,0,0,1,3.123-.877,5.288,5.288,0,0,1,2.4.558,3.481,3.481,0,0,1,1.521,1.515v-7.335h4Z" transform="translate(-1088.189 -265.576)"/>
      <path id="Path_97" data-name="Path 97" class="cls-1" d="M1384.8,350.95a2.474,2.474,0,0,0-2.162-2.631h-.481a3.081,3.081,0,0,0-2,.717,2.74,2.74,0,0,0-.8,1.834Zm3.843,2.392h-9.287a2.777,2.777,0,0,0,.8,1.913,2.829,2.829,0,0,0,2.081.638c1.2,0,2-.4,2.322-1.2h3.924a3.652,3.652,0,0,1-1.041,2.153,6.01,6.01,0,0,1-2.242,1.435,7.7,7.7,0,0,1-2.963.478,7.232,7.232,0,0,1-5.044-1.754,6.172,6.172,0,0,1-1.762-4.7,7.762,7.762,0,0,1,.8-3.508,6.087,6.087,0,0,1,2.4-2.312,7.842,7.842,0,0,1,3.522-.8,8.6,8.6,0,0,1,3.443.717,5.833,5.833,0,0,1,2.322,2.073,6.006,6.006,0,0,1,.8,3.109,12.29,12.29,0,0,1-.08,1.754" transform="translate(-1199.953 -301.586)"/>
    </g>
  </g>
</svg>
