<svg id="Group_22" data-name="Group 22" xmlns="http://www.w3.org/2000/svg" xmlns:xlink="http://www.w3.org/1999/xlink" width="87.365" height="39.308" viewBox="0 0 87.365 39.308">
  <defs>
    <style>
      .cls-1 {
        fill: #b6b9bd;
      }

      .cls-2 {
        clip-path: url(#clip-path);
      }
    </style>
    <clipPath id="clip-path">
      <rect id="Rectangle_22" data-name="Rectangle 22" class="cls-1" width="87.365" height="39.308"/>
    </clipPath>
  </defs>
  <g id="Group_26" data-name="Group 26" class="cls-2">
    <path id="Path_112" data-name="Path 112" class="cls-1" d="M4.628,8.616c0,8.422.079,16.465-.054,24.5-.035,2.106,1.138,5.71-2.276,5.617C-.946,38.649.2,35.084.175,32.95.053,24.263.12,15.574.128,6.885A31.1,31.1,0,0,1,.244,3.539C.366,2.424.607,1.259,1.767.732,3.161.1,4.153,1,5.04,1.868c3.014,2.954,5.99,5.946,8.976,8.929,5.619,5.615,11.214,11.255,16.872,16.831,1.014,1,1.955,3.023,3.4,2.434,1.7-.692.871-2.869.888-4.392.075-6.826.027-13.653.041-20.48a7.828,7.828,0,0,1,.587-4A2.008,2.008,0,0,1,37.938.025,1.8,1.8,0,0,1,39.46,1.476a9.671,9.671,0,0,1,.229,2.212q.021,15.64,0,31.279c0,1.467.186,3.164-1.545,3.854s-2.787-.681-3.814-1.7Q21.4,24.238,8.522,11.317c-.94-.937-1.683-2.171-3.894-2.7" transform="translate(0 0)"/>
    <path id="Path_113" data-name="Path 113" class="cls-1" d="M342.788,21.88c0,5.209.029,10.418-.026,15.626-.016,1.477-.1,3.422-2,3.439-2.129.019-1.764-2.049-1.772-3.444-.051-8.805-.129-17.612.013-26.416.055-3.376-1.188-4.765-4.573-4.566a18.637,18.637,0,0,1-7.014-.486c-1-.33-1.883-.845-1.852-2.027.037-1.414,1.084-1.9,2.291-1.911,3.967-.048,7.936-.061,11.9-.015,2.483.029,3.036,1.728,3.037,3.8q0,8,0,16" transform="translate(-274.84 -1.733)"/>
    <path id="Path_114" data-name="Path 114" class="cls-1" d="M282.336,22.931c0,5.208.031,10.416-.023,15.623-.016,1.592.024,3.638-2.143,3.715-2.559.091-2.293-2.14-2.3-3.827q-.049-15.623,0-31.246c.005-1.546-.311-3.626,2.028-3.685,2.508-.063,2.4,2.083,2.416,3.8.052,5.207.019,10.415.016,15.623" transform="translate(-234.562 -2.963)"/>
    <path id="Path_115" data-name="Path 115" class="cls-1" d="M461.854,6.355c-2.3-.111-4.393-.146-6.474-.342-1-.094-2.036-.56-2.078-1.744-.043-1.206.935-1.759,1.976-1.772q6.462-.085,12.926.014a1.706,1.706,0,0,1,1.826,1.513A1.728,1.728,0,0,1,468.283,6c-2.2.227-4.417.257-6.429.357" transform="translate(-382.68 -2.077)"/>
  </g>
</svg>
