<svg id="icon_app_googlestore" data-name="icon/app/googlestore" xmlns="http://www.w3.org/2000/svg" xmlns:xlink="http://www.w3.org/1999/xlink" width="216.906" height="64.046" viewBox="0 0 216.906 64.046">
  <defs>
    <style>
      .cls-1, .cls-4 {
        fill: none;
      }

      .cls-2 {
        clip-path: url(#clip-path);
      }

      .cls-3 {
        fill: #fff;
      }

      .cls-4 {
        stroke: #fff;
        stroke-miterlimit: 10;
        stroke-width: 0.054px;
      }

      .cls-5 {
        clip-path: url(#clip-path-2);
      }

      .cls-6 {
        clip-path: url(#clip-path-3);
      }

      .cls-7 {
        fill: #32bbff;
      }

      .cls-8 {
        clip-path: url(#clip-path-4);
      }

      .cls-9 {
        fill: #ffd500;
      }

      .cls-10 {
        clip-path: url(#clip-path-5);
      }

      .cls-11 {
        fill: url(#linear-gradient);
      }

      .cls-12 {
        clip-path: url(#clip-path-6);
      }

      .cls-13 {
        fill: #29cc5e;
      }
    </style>
    <clipPath id="clip-path">
      <path id="Clip_2" data-name="Clip 2" class="cls-1" d="M0,0H216.906V64.046H0Z"/>
    </clipPath>
    <clipPath id="clip-path-2">
      <path id="Clip_9" data-name="Clip 9" class="cls-1" d="M0,64.046H216.906V0H0Z"/>
    </clipPath>
    <clipPath id="clip-path-3">
      <path id="Clip_12" data-name="Clip 12" class="cls-1" d="M0,2.241V37.627a3.161,3.161,0,0,0,.8,2.242h0l.161.16L20.887,20.175v-.321L.643,0A3.121,3.121,0,0,0,0,2.241" transform="translate(0)"/>
    </clipPath>
    <clipPath id="clip-path-4">
      <path id="Clip_15" data-name="Clip 15" class="cls-1" d="M0,6.565v.48L6.588,13.61l8.034-4.323c2.249-1.281,2.249-3.362,0-4.644h0L6.748.16,6.588,0Z"/>
    </clipPath>
    <clipPath id="clip-path-5">
      <path id="Clip_18" data-name="Clip 18" class="cls-1" d="M0,20.015c.8.8,1.928.8,3.374.16h0L26.832,6.725,20.084,0Z"/>
    </clipPath>
    <linearGradient id="linear-gradient" x1="0.863" y1="0.177" x2="-0.5" y2="1.943" gradientUnits="objectBoundingBox">
      <stop offset="0" stop-color="#ff3a44"/>
      <stop offset="1" stop-color="#c31162"/>
    </linearGradient>
    <clipPath id="clip-path-6">
      <path id="Clip_21" data-name="Clip 21" class="cls-1" d="M0,.686,20.084,20.541l6.748-6.725L3.374.526A3.672,3.672,0,0,0,1.615,0h0A2.224,2.224,0,0,0,0,.686" transform="translate(0 0)"/>
    </clipPath>
  </defs>
  <g id="icon_app_googlestore-2" data-name="icon/app/googlestore">
    <g id="rectange">
      <g id="Group_3" data-name="Group 3" transform="translate(0 0)">
        <path id="Clip_2-2" data-name="Clip 2" class="cls-1" d="M0,0H216.906V64.046H0Z"/>
        <g id="Group_3-2" data-name="Group 3" class="cls-2">
          <path id="Fill_1" data-name="Fill 1" d="M208.873,64.046H8.034A7.942,7.942,0,0,1,0,56.041V8.006A7.942,7.942,0,0,1,8.034,0H208.873a7.942,7.942,0,0,1,8.034,8.006V56.041a7.942,7.942,0,0,1-8.034,8.006"/>
        </g>
      </g>
      <path id="Fill_4" data-name="Fill 4" class="cls-3" d="M48.2,9.927a4.716,4.716,0,0,1-3.535-1.441A4.682,4.682,0,0,1,43.22,4.964a4.683,4.683,0,0,1,1.446-3.523,5.057,5.057,0,0,1,7.07,0,4.683,4.683,0,0,1,1.446,3.523,4.682,4.682,0,0,1-1.446,3.522A4.716,4.716,0,0,1,48.2,9.927Zm0-8.806a3.2,3.2,0,0,0-2.571,1.12,3.87,3.87,0,0,0-1.124,2.723A3.285,3.285,0,0,0,45.63,7.686,3.809,3.809,0,0,0,48.2,8.807a3.2,3.2,0,0,0,2.571-1.121A3.869,3.869,0,0,0,51.9,4.964a3.287,3.287,0,0,0-1.124-2.723A3.813,3.813,0,0,0,48.2,1.121ZM4.981,9.927A4.716,4.716,0,0,1,1.446,8.486,4.682,4.682,0,0,1,0,4.964,4.683,4.683,0,0,1,1.446,1.441,4.716,4.716,0,0,1,4.981,0,4.316,4.316,0,0,1,6.909.48,3.443,3.443,0,0,1,8.355,1.6l-.8.8a3,3,0,0,0-2.57-1.121A3.2,3.2,0,0,0,2.41,2.4,3.285,3.285,0,0,0,1.285,5.123,3.287,3.287,0,0,0,2.41,7.846a4.213,4.213,0,0,0,2.571,1.12,3.515,3.515,0,0,0,2.731-1.12,2.661,2.661,0,0,0,.8-1.921H4.981V4.643H9.64v.641a4.34,4.34,0,0,1-1.125,3.2A4.715,4.715,0,0,1,4.981,9.927Zm51.094-.158H54.95V.16H56.4l4.659,7.525V.16h1.286V9.766H61.055l-4.98-7.846V9.767Zm-19.763,0H35.187V1.281H32.456V.16h6.587v1.12H36.312V9.766Zm-5.3,0H29.724V.16H31.01V9.766Zm-8.676,0H21.048V1.281H18.317V.16h6.748v1.12H22.334V9.766Zm-5.3,0H11.407V.16h5.624v1.12H12.693V4.323H16.71V5.444H12.693V8.486h4.338V9.766Z" transform="translate(66.518 11.048)"/>
      <path id="Stroke_6" data-name="Stroke 6" class="cls-4" d="M48.2,9.927a4.716,4.716,0,0,1-3.535-1.441A4.682,4.682,0,0,1,43.22,4.964a4.683,4.683,0,0,1,1.446-3.523,5.057,5.057,0,0,1,7.07,0,4.683,4.683,0,0,1,1.446,3.523,4.682,4.682,0,0,1-1.446,3.522A4.716,4.716,0,0,1,48.2,9.927Zm0-8.806a3.2,3.2,0,0,0-2.571,1.12,3.87,3.87,0,0,0-1.124,2.723A3.285,3.285,0,0,0,45.63,7.686,3.809,3.809,0,0,0,48.2,8.807a3.2,3.2,0,0,0,2.571-1.121A3.869,3.869,0,0,0,51.9,4.964a3.287,3.287,0,0,0-1.124-2.723A3.813,3.813,0,0,0,48.2,1.121ZM4.981,9.927A4.716,4.716,0,0,1,1.446,8.486,4.682,4.682,0,0,1,0,4.964,4.683,4.683,0,0,1,1.446,1.441,4.716,4.716,0,0,1,4.981,0,4.316,4.316,0,0,1,6.909.48,3.443,3.443,0,0,1,8.355,1.6l-.8.8a3,3,0,0,0-2.57-1.121A3.2,3.2,0,0,0,2.41,2.4,3.285,3.285,0,0,0,1.285,5.123,3.287,3.287,0,0,0,2.41,7.846a4.213,4.213,0,0,0,2.571,1.12,3.515,3.515,0,0,0,2.731-1.12,2.661,2.661,0,0,0,.8-1.921H4.981V4.643H9.64v.641a4.34,4.34,0,0,1-1.125,3.2A4.715,4.715,0,0,1,4.981,9.927Zm51.094-.158H54.95V.16H56.4l4.659,7.525V.16h1.286V9.766H61.055l-4.98-7.846V9.767Zm-19.763,0H35.187V1.281H32.456V.16h6.587v1.12H36.312V9.766Zm-5.3,0H29.724V.16H31.01V9.766Zm-8.676,0H21.048V1.281H18.317V.16h6.748v1.12H22.334V9.766Zm-5.3,0H11.407V.16h5.624v1.12H12.693V4.323H16.71V5.444H12.693V8.486h4.338V9.766Z" transform="translate(66.518 11.048)"/>
      <path id="Clip_9-2" data-name="Clip 9" class="cls-1" d="M0,64.046H216.906V0H0Z"/>
      <g id="Mask_Group_4" data-name="Mask Group 4" class="cls-5">
        <path id="Fill_8" data-name="Fill 8" class="cls-3" d="M58.324,27.06a6.676,6.676,0,0,1-6.105-4l2.57-1.121a3.549,3.549,0,0,0,3.374,2.4c2.314,0,3.7-1.5,3.7-4v-.961H61.7a4.653,4.653,0,0,1-3.535,1.6,6.508,6.508,0,0,1-4.619-1.921,6.724,6.724,0,0,1-1.968-4.8A6.922,6.922,0,0,1,53.6,9.367a6.506,6.506,0,0,1,4.559-2,5.3,5.3,0,0,1,3.7,1.6V7.846h2.892V20.014A7.236,7.236,0,0,1,62.863,25.4,6.317,6.317,0,0,1,58.324,27.06Zm0-16.973a3.975,3.975,0,0,0-3.856,4.163,3.976,3.976,0,0,0,3.856,4.164,3.863,3.863,0,0,0,3.7-4.164A3.863,3.863,0,0,0,58.324,10.087Zm69.41,16.652h-3.053l3.053-6.725-5.3-12.168h3.213l3.535,8.646h.161l3.374-8.646h3.213l-8.194,18.892ZM78.086,21.3a6.648,6.648,0,0,1-4.82-2,6.951,6.951,0,0,1-1.928-4.884,7.1,7.1,0,0,1,1.888-5,6.169,6.169,0,0,1,10.323,2.441l.321.8-9.158,3.843a3.48,3.48,0,0,0,3.374,2.081,3.876,3.876,0,0,0,3.374-1.921l2.249,1.6A6.566,6.566,0,0,1,78.086,21.3Zm-.321-11.208a3.885,3.885,0,0,0-3.535,4l6.105-2.562A2.841,2.841,0,0,0,77.765,10.087ZM43.381,21.3a6.846,6.846,0,0,1-6.909-6.885,6.746,6.746,0,0,1,6.909-6.885,6.989,6.989,0,0,1,4.9,1.882,6.759,6.759,0,0,1,2.009,5A6.746,6.746,0,0,1,43.381,21.3Zm0-11.208a3.975,3.975,0,0,0-3.856,4.163,3.867,3.867,0,1,0,7.712,0A3.882,3.882,0,0,0,43.381,10.087ZM28.439,21.3A6.846,6.846,0,0,1,21.53,14.41a6.746,6.746,0,0,1,6.909-6.885,6.989,6.989,0,0,1,4.9,1.882,6.759,6.759,0,0,1,2.009,5A6.746,6.746,0,0,1,28.439,21.3Zm0-11.208a3.975,3.975,0,0,0-3.856,4.163,3.867,3.867,0,1,0,7.712,0A3.882,3.882,0,0,0,28.439,10.087ZM10.765,21.135A10.811,10.811,0,0,1,0,10.568,10.811,10.811,0,0,1,10.765,0,10.253,10.253,0,0,1,18,2.882L15.906,4.964a7.908,7.908,0,0,0-5.3-2.082A7.455,7.455,0,0,0,5.262,5.1a7.707,7.707,0,0,0-2.209,5.464A7.757,7.757,0,0,0,5.2,16.032a7.458,7.458,0,0,0,5.4,2.222,7.136,7.136,0,0,0,5.3-2.082,6.1,6.1,0,0,0,1.607-3.682H10.6V9.607h9.961a6.007,6.007,0,0,1,.161,1.761,9.672,9.672,0,0,1-2.571,6.725A9.287,9.287,0,0,1,10.765,21.135Zm104.918-.16a5.417,5.417,0,0,1-3.455-1.221,4.212,4.212,0,0,1-1.526-3.262,3.951,3.951,0,0,1,1.808-3.323,7.065,7.065,0,0,1,3.977-1.161,6.358,6.358,0,0,1,3.053.8v-.159a2.639,2.639,0,0,0-1.065-1.882,3.571,3.571,0,0,0-2.148-.681,2.812,2.812,0,0,0-2.732,1.441l-2.731-1.121a4.405,4.405,0,0,1,2.109-2.3,6.84,6.84,0,0,1,3.193-.74,6.667,6.667,0,0,1,4.358,1.481,5.947,5.947,0,0,1,2.069,4.123v7.686H119.7v-1.6h-.161A4.529,4.529,0,0,1,115.683,20.975Zm.964-6.4c-1.553,0-3.213.547-3.213,2.081,0,1.293,1.441,1.762,2.41,1.762a3.731,3.731,0,0,0,3.534-3.2l-.239-.1A5.811,5.811,0,0,0,116.647,14.571Zm-7.873,6.084h-3.052V.641h3.052V20.654Zm-15.424,0H90.3V.641h7.23a6.963,6.963,0,0,1,4.559,1.681,5.993,5.993,0,0,1,2.028,4.563,5.993,5.993,0,0,1-2.028,4.563,6.963,6.963,0,0,1-4.559,1.681H93.35v7.524Zm0-17.293v6.885h4.338a3.642,3.642,0,0,0,3.535-3.523A3.425,3.425,0,0,0,100.3,4.5a3.49,3.49,0,0,0-2.611-1.141ZM69.731,20.655H66.679V.641h3.052V20.654Z" transform="translate(66.036 27.38)"/>
      </g>
    </g>
    <g id="Group_13" data-name="Group 13" transform="translate(16.067 12.009)">
      <path id="Clip_12-2" data-name="Clip 12" class="cls-1" d="M0,2.241V37.627a3.161,3.161,0,0,0,.8,2.242h0l.161.16L20.887,20.175v-.321L.643,0A3.121,3.121,0,0,0,0,2.241" transform="translate(0 0)"/>
      <g id="Group_13-2" data-name="Group 13" class="cls-6" transform="translate(0 0)">
        <path id="Fill_11" data-name="Fill 11" class="cls-7" d="M0,2.241V37.627a3.161,3.161,0,0,0,.8,2.242h0l.161.16L20.887,20.175v-.321L.643,0A3.121,3.121,0,0,0,0,2.241" transform="translate(0)"/>
      </g>
    </g>
    <g id="Group_16" data-name="Group 16" transform="translate(36.794 25.298)">
      <path id="Clip_15-2" data-name="Clip 15" class="cls-1" d="M0,6.565v.48L6.588,13.61l8.034-4.323c2.249-1.281,2.249-3.362,0-4.644h0L6.748.16,6.588,0Z" transform="translate(0 0)"/>
      <g id="Group_16-2" data-name="Group 16" class="cls-8" transform="translate(0 0)">
        <path id="Fill_14" data-name="Fill 14" class="cls-9" d="M0,6.565v.48L6.588,13.61l8.034-4.323c2.249-1.281,2.249-3.362,0-4.644h0L6.748.16,6.588,0Z"/>
      </g>
    </g>
    <g id="Group_19" data-name="Group 19" transform="translate(16.71 32.023)">
      <path id="Clip_18-2" data-name="Clip 18" class="cls-1" d="M0,20.015c.8.8,1.928.8,3.374.16h0L26.832,6.725,20.084,0Z"/>
      <g id="Group_19-2" data-name="Group 19" class="cls-10">
        <path id="Fill_17" data-name="Fill 17" class="cls-11" d="M0,20.015c.8.8,1.928.8,3.374.16h0L26.832,6.725,20.084,0Z"/>
      </g>
    </g>
    <g id="Group_22" data-name="Group 22" transform="translate(16.71 11.483)">
      <path id="Clip_21-2" data-name="Clip 21" class="cls-1" d="M0,.686,20.084,20.541l6.748-6.725L3.374.526A3.672,3.672,0,0,0,1.615,0h0A2.224,2.224,0,0,0,0,.686" transform="translate(0 0)"/>
      <g id="Group_22-2" data-name="Group 22" class="cls-12" transform="translate(0 0)">
        <path id="Fill_20" data-name="Fill 20" class="cls-13" d="M0,.686,20.084,20.541l6.748-6.725L3.374.526A3.672,3.672,0,0,0,1.615,0h0A2.224,2.224,0,0,0,0,.686" transform="translate(0 0)"/>
      </g>
    </g>
    <g id="Group_29" data-name="Group 29" transform="translate(16.067 11.444)">
      <path id="Fill_23" data-name="Fill 23" d="M26.671,0,3.374,13.13a2.635,2.635,0,0,1-3.213,0L0,13.29l.161.16a2.635,2.635,0,0,0,3.213,0Z" transform="translate(0.643 27.144)"/>
      <path id="Fill_25" data-name="Fill 25" d="M.629,19.66H.614A2.506,2.506,0,0,1,0,18.07a3.117,3.117,0,0,0,.627,1.589ZM27.446,6.691h0l-.16-.16,8.034-4.483C36.429,1.31,36.91.7,36.925,0a2.689,2.689,0,0,1-1.606,2.207L27.447,6.691Z" transform="translate(0.029 20.613)"/>
      <path id="Fill_27" data-name="Fill 27" class="cls-3" d="M4.017.725,35.348,18.5c.964.64,1.607,1.281,1.607,2.082a2.662,2.662,0,0,0-1.607-2.242L4.017.565C1.767-.716,0,.245,0,2.807v.16C0,.565,1.767-.556,4.017.725" transform="translate(0 0)"/>
    </g>
  </g>
</svg>
