<svg xmlns="http://www.w3.org/2000/svg" xmlns:xlink="http://www.w3.org/1999/xlink" width="217.906" height="65.005" viewBox="0 0 217.906 65.005">
  <defs>
    <style>
      .cls-1 {
        fill: none;
      }

      .cls-2 {
        fill: #fff;
        stroke: #cfcfcf;
        stroke-miterlimit: 10;
      }

      .cls-3 {
        clip-path: url(#clip-path);
      }
    </style>
    <clipPath id="clip-path">
      <path id="Clip_31" data-name="Clip 31" class="cls-1" d="M0,64.016H215.813V0H0Z"/>
    </clipPath>
  </defs>
  <g id="icon_app_appstore" data-name="icon/app/appstore" transform="translate(0.5 0.5)">
    <g id="icon_app_appstore-2" data-name="icon/app/appstore">
      <rect id="Rectangle" class="cls-2" width="216.906" height="64.005" rx="8"/>
      <path id="Fill_4" data-name="Fill 4" d="M24.632,10.545a8.258,8.258,0,0,1,3.919-6.916A8.494,8.494,0,0,0,21.9.03C19.112-.265,16.4,1.708,14.975,1.708c-1.447,0-3.65-1.639-6.007-1.6A8.832,8.832,0,0,0,1.527,4.654C-1.688,10.225.707,18.422,3.794,22.93c1.55,2.2,3.343,4.675,5.712,4.585,2.305-.09,3.176-1.473,5.956-1.473s3.573,1.473,5.981,1.422c2.485-.038,4.034-2.216,5.533-4.444A18.066,18.066,0,0,0,29.5,17.871a7.988,7.988,0,0,1-4.867-7.326" transform="translate(30.259 20.069)"/>
      <path id="Fill_6" data-name="Fill 6" d="M5.432,5.815A8.126,8.126,0,0,0,7.289,0,8.239,8.239,0,0,0,1.948,2.766,7.792,7.792,0,0,0,.04,8.363,6.826,6.826,0,0,0,5.432,5.815" transform="translate(44.913 11.326)"/>
      <path id="Fill_8" data-name="Fill 8" d="M3.138,18.917H0L6.083,0H9.849l6.109,18.915H12.73l-1.767-5.558H4.815L3.138,18.917ZM7.826,2.536c-.167.7-.458,1.886-.9,3.561L5.353,11.027h5.085L8.837,6.1c-.187-.576-.532-1.874-.948-3.561Z" transform="translate(72.386 28.347)"/>
      <path id="Fill_10" data-name="Fill 10" d="M3.151,19.454H.115V4.764C.115,3.3.078,1.833,0,.281H2.664l.167,2.165h.051A5.072,5.072,0,0,1,7.48,0,5.088,5.088,0,0,1,11.5,1.909a7.383,7.383,0,0,1,1.64,5.033,7.72,7.72,0,0,1-1.9,5.494,5.542,5.542,0,0,1-4.2,1.792A4.181,4.181,0,0,1,3.151,12.3v7.158ZM6.519,2.421a3.231,3.231,0,0,0-2.036.743A3.442,3.442,0,0,0,3.292,5.11a4.11,4.11,0,0,0-.141.922V8.312a3.665,3.665,0,0,0,.91,2.511,3.029,3.029,0,0,0,2.369,1.024,3.14,3.14,0,0,0,2.665-1.319,5.756,5.756,0,0,0,.961-3.484,5.528,5.528,0,0,0-.9-3.278A3.112,3.112,0,0,0,6.519,2.421Z" transform="translate(90.842 33.342)"/>
      <path id="Fill_12" data-name="Fill 12" d="M3.151,19.454H.115V4.764C.115,3.3.078,1.833,0,.281H2.664l.167,2.165h.051A5.072,5.072,0,0,1,7.48,0,5.088,5.088,0,0,1,11.5,1.909a7.383,7.383,0,0,1,1.64,5.033,7.72,7.72,0,0,1-1.9,5.494,5.542,5.542,0,0,1-4.2,1.792A4.181,4.181,0,0,1,3.151,12.3v7.158ZM6.519,2.421a3.231,3.231,0,0,0-2.036.743A3.483,3.483,0,0,0,3.292,5.11a4.11,4.11,0,0,0-.141.922V8.312a3.665,3.665,0,0,0,.91,2.511,3.029,3.029,0,0,0,2.369,1.024,3.109,3.109,0,0,0,2.665-1.319,5.682,5.682,0,0,0,.961-3.484,5.528,5.528,0,0,0-.9-3.278A3.112,3.112,0,0,0,6.519,2.421Z" transform="translate(106.519 33.342)"/>
      <path id="Fill_14" data-name="Fill 14" d="M11.719,13.883a5.065,5.065,0,0,1-1.678,3.932,7.447,7.447,0,0,1-5.149,1.652A9.009,9.009,0,0,1,0,18.289l.7-2.523a8.507,8.507,0,0,0,4.38,1.178,4.125,4.125,0,0,0,2.664-.768,2.51,2.51,0,0,0,.961-2.062,2.667,2.667,0,0,0-.781-1.934,7.313,7.313,0,0,0-2.613-1.46C1.972,9.478.32,7.672.32,5.3A4.8,4.8,0,0,1,2.075,1.486,6.96,6.96,0,0,1,6.724,0a9.139,9.139,0,0,1,4.291.9l-.768,2.459a7.559,7.559,0,0,0-3.637-.871,3.774,3.774,0,0,0-2.51.781,2.273,2.273,0,0,0-.756,1.716,2.3,2.3,0,0,0,.871,1.844,9.771,9.771,0,0,0,2.754,1.46,9.232,9.232,0,0,1,3.586,2.305,4.792,4.792,0,0,1,1.165,3.292" transform="translate(125.487 28.078)"/>
      <path id="Fill_16" data-name="Fill 16" d="M8.3,5.674H4.957V12.3c0,1.678.589,2.523,1.767,2.523a5.622,5.622,0,0,0,1.345-.141l.09,2.305a7.029,7.029,0,0,1-2.357.333,3.627,3.627,0,0,1-2.8-1.1,5.346,5.346,0,0,1-1.012-3.676V5.661H0V3.394H1.985V.9L4.957,0V3.394H8.3v2.28" transform="translate(138.948 30.23)"/>
      <path id="Fill_18" data-name="Fill 18" d="M6.57,14.216a6.162,6.162,0,0,1-4.79-1.986A7.236,7.236,0,0,1,0,7.211,7.467,7.467,0,0,1,1.832,2.024,6.416,6.416,0,0,1,6.788,0a6.25,6.25,0,0,1,4.828,2A7.144,7.144,0,0,1,13.359,6.98a7.528,7.528,0,0,1-1.793,5.161A6.447,6.447,0,0,1,6.57,14.216ZM6.686,2.2A3.03,3.03,0,0,0,3.907,3.83,6.1,6.1,0,0,0,3.1,7.108a6.1,6.1,0,0,0,.807,3.215A3.11,3.11,0,0,0,9.388,10.3a6.163,6.163,0,0,0,.833-3.253A6.076,6.076,0,0,0,9.414,3.83,3.018,3.018,0,0,0,6.686,2.2Z" transform="translate(148.925 33.355)"/>
      <path id="Fill_20" data-name="Fill 20" d="M7.313,2.946a5.615,5.615,0,0,0-.961-.077,2.86,2.86,0,0,0-2.472,1.2,4.569,4.569,0,0,0-.756,2.69v7.159H.09V4.572C.09,3,.064,1.563,0,.282H2.638l.115,2.613h.09A4.65,4.65,0,0,1,4.355.73,3.687,3.687,0,0,1,6.545,0,6.379,6.379,0,0,1,7.3.051l.013,2.895" transform="translate(164.832 33.342)"/>
      <path id="Fill_22" data-name="Fill 22" d="M6.787,14.2a6.642,6.642,0,0,1-4.982-1.87A6.919,6.919,0,0,1,0,7.326,7.851,7.851,0,0,1,1.691,2.19,5.828,5.828,0,0,1,6.455,0a5.067,5.067,0,0,1,4.457,2.19,7.368,7.368,0,0,1,1.216,4.3,6.95,6.95,0,0,1-.114,1.371H2.92a3.961,3.961,0,0,0,1.319,3.086A4.566,4.566,0,0,0,7.21,11.9a10.224,10.224,0,0,0,3.676-.641l.475,2.1A11.447,11.447,0,0,1,6.787,14.2ZM6.237,2.113A2.885,2.885,0,0,0,3.83,3.343a4.552,4.552,0,0,0-.9,2.356l6.3.013a4.088,4.088,0,0,0-.589-2.331A2.651,2.651,0,0,0,6.237,2.113Z" transform="translate(173.567 33.304)"/>
      <path id="Fill_24" data-name="Fill 24" d="M1.537,9.3H0L2.984,0H4.829L7.85,9.3H6.263L5.392,6.57H2.37L1.537,9.3ZM3.842,1.23h0c-.033.127-.068.271-.108.435-.086.351-.192.787-.34,1.32L2.625,5.418h2.5L4.342,2.984c-.069-.22-.2-.725-.4-1.489l-.07-.266Z" transform="translate(73.514 12.287)"/>
      <path id="Fill_26" data-name="Fill 26" d="M6.442,0,3.906,6.711H2.459L0,0H1.6l1.14,3.548c.192.589.359,1.153.487,1.691h.038c.115-.487.282-1.05.487-1.691L4.88,0H6.442" transform="translate(82.402 14.874)"/>
      <path id="Fill_28" data-name="Fill 28" d="M2.049,6.98A1.946,1.946,0,0,1,0,5.007C0,3.389,1.392,2.5,3.919,2.5V2.37c0-.876-.47-1.32-1.4-1.32a3.124,3.124,0,0,0-1.755.5L.461.576A4.294,4.294,0,0,1,2.766,0C4.517,0,5.405.935,5.405,2.779V5.251a8.821,8.821,0,0,0,.1,1.6L4.162,6.827l-.115-.768H4.008A2.315,2.315,0,0,1,2.049,6.98Zm1.909-3.5c-1.7,0-2.485.431-2.485,1.357A.953.953,0,0,0,2.5,5.891a1.419,1.419,0,0,0,1.46-1.37Z" transform="translate(90.087 14.759)"/>
      <path id="Clip_31-2" data-name="Clip 31" class="cls-1" d="M0,64.038H216.129V0H0Z" transform="translate(0.004 0.055)"/>
      <g id="icon_app_appstore-3" data-name="icon/app/appstore" class="cls-3" transform="translate(0.006 0.078)">
        <path id="Fill_30" data-name="Fill 30" d="M1.65,9.576H.166v-6.7H1.65V9.575Zm-.767-7.8A.87.87,0,0,1,0,.883.876.876,0,0,1,.908,0a.927.927,0,0,1,.673.272.836.836,0,0,1,.234.611A.866.866,0,0,1,.882,1.779Z" transform="translate(97.778 11.933)"/>
        <path id="Fill_32" data-name="Fill 32" d="M0,9.769H1.484V0H0Z" transform="translate(102.075 11.74)"/>
        <path id="Fill_33" data-name="Fill 33" d="M2.046,6.991A1.944,1.944,0,0,1,0,5.019C0,3.4,1.39,2.509,3.913,2.509V2.381c0-.875-.469-1.318-1.394-1.318a3.11,3.11,0,0,0-1.752.5L.46.576A4.284,4.284,0,0,1,2.762,0C4.511,0,5.4.935,5.4,2.778V5.25a10.484,10.484,0,0,0,.089,1.6H4.156V6.837l-.115-.768H4A2.311,2.311,0,0,1,2.046,6.991ZM3.952,3.5c-1.693,0-2.481.431-2.481,1.357A.953.953,0,0,0,2.494,5.9a1.418,1.418,0,0,0,1.458-1.37Z" transform="translate(105.72 14.685)"/>
        <path id="Fill_34" data-name="Fill 34" d="M3.491,9.936a2.288,2.288,0,0,1-2.11-1.191H1.355L1.266,9.782H0C.034,9.3.051,8.727.051,7.977V0h1.5V4.059h.026A2.291,2.291,0,0,1,3.709,2.945c1.611,0,2.737,1.4,2.737,3.393a4.05,4.05,0,0,1-.839,2.577A2.7,2.7,0,0,1,3.491,9.936ZM3.184,4.11A1.715,1.715,0,0,0,1.547,5.889V7.067A1.628,1.628,0,0,0,3.159,8.745c1.1,0,1.778-.9,1.778-2.356C4.937,5.026,4.233,4.11,3.184,4.11Z" transform="translate(113.661 11.74)"/>
        <path id="Fill_35" data-name="Fill 35" d="M0,9.769H1.484V0H0Z" transform="translate(122.307 11.74)"/>
        <path id="Fill_36" data-name="Fill 36" d="M3.338,6.978A3.117,3.117,0,0,1,0,3.6,3.912,3.912,0,0,1,.871,1.031,2.946,2.946,0,0,1,3.172,0C4.865,0,5.959,1.251,5.959,3.188a2.674,2.674,0,0,1-.063.679H1.432a1.926,1.926,0,0,0,2.11,1.984,5.048,5.048,0,0,0,1.8-.32l.23,1.037A5.4,5.4,0,0,1,3.338,6.978ZM3.069,1.037A1.757,1.757,0,0,0,1.445,2.8H4.54a2,2,0,0,0-.4-1.292A1.347,1.347,0,0,0,3.069,1.037Z" transform="translate(125.99 14.66)"/>
        <path id="Fill_37" data-name="Fill 37" d="M3.223,6.991A3.082,3.082,0,0,1,.878,6.013,3.621,3.621,0,0,1,0,3.546,3.263,3.263,0,0,1,3.338,0,3.154,3.154,0,0,1,6.561,3.431a3.682,3.682,0,0,1-.916,2.563A3.2,3.2,0,0,1,3.223,6.991Zm.064-5.9c-1.056,0-1.765.967-1.765,2.407,0,1.4.72,2.381,1.751,2.381,1.015,0,1.752-1.018,1.752-2.42S4.3,1.088,3.287,1.088Z" transform="translate(137.679 14.685)"/>
        <path id="Fill_38" data-name="Fill 38" d="M5.857,6.85H4.374V3c0-1.191-.46-1.78-1.356-1.78A1.54,1.54,0,0,0,1.535,2.855V6.837H.051V2.061C.051,1.472.038.832,0,.141H1.3l.064,1.037h.038A2.407,2.407,0,0,1,3.53,0C4.937,0,5.857,1.075,5.857,2.829V6.85" transform="translate(146.375 14.672)"/>
        <path id="Fill_39" data-name="Fill 39" d="M4.054,2.791H2.417V6.043c0,.832.294,1.242.87,1.242a3.251,3.251,0,0,0,.665-.064L3.99,8.348a3.22,3.22,0,0,1-1.151.166C1.663,8.514.972,7.861.972,6.171V2.791H0V1.677H.972V.448L2.43,0V1.664H4.067V2.791" transform="translate(157.911 13.149)"/>
        <path id="Fill_40" data-name="Fill 40" d="M5.806,9.782H4.323V5.953c0-1.2-.46-1.805-1.356-1.805A1.459,1.459,0,0,0,1.484,5.736V9.769H0V0H1.484V4.02h.026A2.249,2.249,0,0,1,3.517,2.932c1.42,0,2.289,1.1,2.289,2.855V9.782" transform="translate(164.037 11.74)"/>
        <path id="Fill_41" data-name="Fill 41" d="M3.338,6.978A3.117,3.117,0,0,1,0,3.6,3.912,3.912,0,0,1,.871,1.031,2.946,2.946,0,0,1,3.172,0C4.865,0,5.959,1.251,5.959,3.188a2.674,2.674,0,0,1-.063.679H1.432a1.926,1.926,0,0,0,2.11,1.984,5.048,5.048,0,0,0,1.8-.32l.23,1.037A5.4,5.4,0,0,1,3.338,6.978ZM3.069,1.037A1.759,1.759,0,0,0,1.445,2.8H4.54a2,2,0,0,0-.4-1.292A1.347,1.347,0,0,0,3.069,1.037Z" transform="translate(171.544 14.66)"/>
      </g>
    </g>
  </g>
</svg>
